<?xml version="1.0" encoding="utf-8"?>
<!-- Generator: Adobe Illustrator 18.1.0, SVG Export Plug-In . SVG Version: 6.00 Build 0)  -->
<!DOCTYPE svg PUBLIC "-//W3C//DTD SVG 1.1//EN" "http://www.w3.org/Graphics/SVG/1.1/DTD/svg11.dtd">
<svg version="1.1" id="Layer_1" xmlns="http://www.w3.org/2000/svg" xmlns:xlink="http://www.w3.org/1999/xlink" x="0px" y="0px"
	 viewBox="0 0 307.7 97.1" enable-background="new 0 0 307.7 97.1" xml:space="preserve">
<g>
	<g>
		<g>
			<path fill="#4E78BC" d="M136.1,65.9c1.8,1.7,3.8,3,6.2,4c2.3,0.9,4.9,1.4,7.5,1.4h21.5v-5.9h-8.6c0.4-0.3,0.9-0.7,1.3-1.1
				c1.1-1.1,2-2.3,2.7-3.6c0.7-1.3,1.3-2.8,1.6-4.3c0.4-1.5,0.6-3.1,0.6-4.7c0-2.7-0.5-5.2-1.5-7.4c-1-2.3-2.4-4.2-4.1-5.9
				c-1.7-1.7-3.8-3-6.1-3.9c-4.7-1.9-10.5-1.9-15,0c-2.3,1-4.4,2.3-6.1,4c-1.7,1.7-3.1,3.8-4.1,6.1c-1,2.3-1.5,4.9-1.5,7.6
				c0,2.8,0.5,5.3,1.5,7.7C132.9,62.2,134.3,64.2,136.1,65.9z M138.1,46.8c0.6-1.5,1.5-2.9,2.6-4c1.1-1.1,2.4-2,3.9-2.7
				c1.5-0.7,3.1-1,4.9-1c1.8,0,3.5,0.3,5,1c1.5,0.7,2.8,1.6,3.9,2.7c1.1,1.1,2,2.5,2.6,4c0.6,1.5,0.9,3.2,0.9,5
				c0,1.8-0.3,3.6-0.9,5.2c-0.6,1.6-1.5,3-2.5,4.2c-1.1,1.2-2.4,2.1-3.9,2.8c-3,1.3-7.1,1.4-10.1,0c-1.5-0.7-2.8-1.6-3.9-2.8
				c-1.1-1.2-1.9-2.6-2.5-4.2c-0.6-1.6-0.9-3.4-0.9-5.2C137.2,50,137.5,48.4,138.1,46.8z"/>
			<path fill="#4E78BC" d="M173.9,33.8v23.5c0,2.2,0.4,4.2,1.1,6c0.7,1.8,1.8,3.4,3.1,4.7c1.3,1.3,2.9,2.4,4.7,3.1
				c1.8,0.7,3.7,1.1,5.8,1.1c2.1,0,4-0.4,5.8-1.1c1.8-0.7,3.4-1.7,4.7-3.1c1.3-1.3,2.4-2.9,3.1-4.7c0.7-1.8,1.1-3.8,1.1-6V33.8h-6.5
				v22.8c0,1-0.1,2.1-0.4,3.3c-0.3,1.1-0.8,2.1-1.4,3c-0.6,0.9-1.5,1.6-2.5,2.2c-1,0.6-2.3,0.9-3.8,0.9c-1.5,0-2.8-0.3-3.8-0.9
				c-1-0.6-1.9-1.3-2.5-2.2c-0.6-0.9-1.1-1.9-1.4-3c-0.3-1.1-0.4-2.2-0.4-3.3V33.8H173.9z"/>
			<path fill="#4E78BC" d="M239.5,38.4c-1.7-1.7-3.7-3.1-6-4.1c-4.7-2-10.7-2-15.4,0c-2.3,1-4.4,2.4-6,4.1c-1.7,1.7-3,3.8-3.9,6.1
				c-0.9,2.3-1.4,4.9-1.4,7.6c0,2.7,0.5,5.3,1.4,7.6c0.9,2.3,2.3,4.4,3.9,6.1c1.7,1.7,3.7,3.1,6,4.1c2.3,1,4.9,1.5,7.7,1.5
				c2.8,0,5.4-0.5,7.7-1.5c2.3-1,4.4-2.4,6-4.1c1.7-1.7,3-3.8,3.9-6.1c0.9-2.3,1.4-4.9,1.4-7.6c0-2.7-0.5-5.3-1.4-7.6
				C242.5,42.2,241.2,40.1,239.5,38.4z M237.3,57.3c-0.6,1.6-1.4,3-2.5,4.2c-1.1,1.2-2.4,2.1-3.9,2.8c-3,1.4-7.2,1.4-10.2,0
				c-1.5-0.7-2.8-1.6-3.9-2.8c-1.1-1.2-1.9-2.6-2.5-4.2c-0.6-1.6-0.9-3.3-0.9-5.1c0-1.8,0.3-3.5,0.9-5.1c0.6-1.6,1.4-3,2.5-4.2
				c1.1-1.2,2.4-2.1,3.9-2.8c1.5-0.7,3.2-1,5.1-1c1.9,0,3.6,0.4,5.1,1c1.5,0.7,2.8,1.6,3.9,2.8c1.1,1.2,1.9,2.6,2.5,4.2
				c0.6,1.6,0.9,3.3,0.9,5.1C238.2,53.9,237.9,55.7,237.3,57.3z"/>
			<polygon fill="#4E78BC" points="245,40.1 256.6,40.1 256.6,71.3 263.1,71.3 263.1,40.1 274.6,40.1 274.6,33.8 245,33.8 			"/>
			<polygon fill="#4E78BC" points="284.6,65.1 284.6,55.3 301.6,55.3 301.6,49.1 284.6,49.1 284.6,40.1 302.9,40.1 302.9,33.8 
				278.1,33.8 278.1,71.3 303.8,71.3 303.8,65.1 			"/>
			<path fill="#23346B" d="M204.3,8.4c-3.1,0-5.6,2.5-5.6,5.6v1.3c0,3.1,2.5,5.6,5.6,5.6c3.1,0,5.6-2.5,5.6-5.6V14
				C209.8,10.9,207.3,8.4,204.3,8.4z"/>
			<path fill="#23346B" d="M223.8,8.2c-1.5-4.2-3.7-6.9-7.4-6.9h-27.7h-27.8c-3.7,0-5.9,2.7-7.4,6.9l-7.4,21.6
				c2.5-0.5,5.4-0.6,5.4-0.6h0.3h36.8h36.8h0.4c0,0,2.9,0.1,5.4,0.6L223.8,8.2z M216.8,25.5c-2.2-1.4-6.8-3.3-7.8-3.3h-9.5
				c-0.9,0-5.6,1.9-7.8,3.3h-3.1h-35.7l6.4-17.1C160,6.4,162.2,5,164,5h24.6h24.6c1.8,0,4,1.4,4.7,3.4l6.4,17.1H216.8z"/>
			<path fill="#23346B" d="M242.3,68.4c-2,2-4.3,3.6-7,4.7c-2.7,1.1-5.7,1.7-8.9,1.7h-77.3c-3,0-5.9-0.6-8.6-1.6
				c-2.7-1.1-5.1-2.6-7.2-4.6c-1.2-1.2-2.3-2.5-3.2-3.9h0l3.1,15.6h0.1c0,0,0,7.2,0,7.6c0,4.5,3.6,8.1,8.1,8.1
				c4.5,0,8.1-3.6,8.1-8.1c0-0.4,0-7.6,0-7.6h76.3c0,0,0,7.2,0,7.6c0,4.5,3.6,8.1,8.1,8.1c4.5,0,8.1-3.6,8.1-8.1c0-0.4,0-7.6,0-7.6
				l3.1-15.3C244.2,66.2,243.3,67.3,242.3,68.4z"/>
			<path fill="#23346B" d="M216.8,25.6c-2.2-1.4-6.8-3.3-7.8-3.3h-9.5c-0.9,0-5.6,1.9-7.8,3.3H216.8z"/>
		</g>
	</g>
	<g>
		<path fill="#23346B" d="M4,34h24.7v6h-18v9.2h17.1v6H10.6v10.1h19v6H4V34z"/>
		<path fill="#23346B" d="M31.8,34h7.6l10.2,28.2L60.1,34h7.2l-15,37.3h-5.7L31.8,34z"/>
		<path fill="#23346B" d="M70.2,34h24.7v6h-18v9.2H94v6H76.9v10.1h19v6H70.2V34z"/>
		<path fill="#23346B" d="M99.9,34h12.9c1.8,0,3.5,0.2,5.2,0.5c1.7,0.3,3.1,0.9,4.4,1.7c1.3,0.8,2.3,1.9,3.1,3.3
			c0.8,1.4,1.2,3.1,1.2,5.2c0,2.7-0.7,5-2.2,6.8c-1.5,1.8-3.6,2.9-6.4,3.3l9.9,16.5h-8l-8.6-15.8h-4.8v15.8h-6.6V34z M111.7,49.8
			c0.9,0,1.9,0,2.8-0.1c0.9-0.1,1.8-0.3,2.6-0.6c0.8-0.3,1.4-0.8,1.9-1.5c0.5-0.7,0.7-1.6,0.7-2.9c0-1.1-0.2-2-0.7-2.6
			c-0.5-0.7-1.1-1.2-1.8-1.5c-0.7-0.3-1.6-0.6-2.4-0.7c-0.9-0.1-1.8-0.2-2.6-0.2h-5.7v10.1H111.7z"/>
	</g>
</g>
</svg>
