<?xml version="1.0" encoding="utf-8"?>
<!-- Generator: Adobe Illustrator 19.1.0, SVG Export Plug-In . SVG Version: 6.00 Build 0)  -->
<svg version="1.1" id="Layer_1" xmlns="http://www.w3.org/2000/svg" xmlns:xlink="http://www.w3.org/1999/xlink" x="0px" y="0px"
	 viewBox="0 0 900 225" style="enable-background:new 0 0 900 225;" xml:space="preserve">
<style type="text/css">
	.st0{fill:#24336B;}
	.st1{fill:#4D77BA;}
	.st2{fill:#FFFFFF;}
</style>
<g>
	<g>
		<path class="st0" d="M886.7,166.6H743.2c-7.3,0-13.3-5.9-13.3-13.3V90.8c0-7.3,5.9-13.3,13.3-13.3h143.6c7.3,0,13.3,5.9,13.3,13.3
			v62.6C900,160.7,894.1,166.6,886.7,166.6z M743.2,87.7c-1.7,0-3.1,1.4-3.1,3.1v62.6c0,1.7,1.4,3.1,3.1,3.1h143.6
			c1.7,0,3.1-1.4,3.1-3.1V90.8c0-1.7-1.4-3.1-3.1-3.1H743.2z"/>
		<g>
			<path class="st0" d="M756.6,98.2H771c2.1,0,4.1,0.2,6,0.7s3.6,1.2,5.1,2.3c1.5,1.1,2.6,2.5,3.5,4.3c0.9,1.8,1.3,4,1.3,6.7
				c0,3-0.5,5.4-1.4,7.3s-2.2,3.3-3.8,4.3s-3.4,1.7-5.5,2.1c-2.1,0.4-4.3,0.5-6.5,0.5h-5.5V146h-7.7V98.2z M768.8,118.9
				c1.1,0,2.2,0,3.4-0.1c1.2-0.1,2.3-0.4,3.3-0.8c1-0.4,1.8-1.1,2.4-2c0.6-0.9,0.9-2.2,0.9-3.8c0-1.5-0.3-2.7-0.9-3.5
				c-0.6-0.9-1.3-1.6-2.2-2c-0.9-0.5-1.9-0.8-3-0.9s-2.1-0.2-3.2-0.2h-5.5v13.4H768.8z"/>
			<path class="st0" d="M792.4,98.2h14.9c2.1,0,4.1,0.2,6,0.6c1.9,0.4,3.6,1.2,5.1,2.2c1.5,1,2.7,2.4,3.6,4.2c0.9,1.8,1.3,4,1.3,6.7
				c0,3.5-0.9,6.4-2.6,8.7c-1.7,2.3-4.2,3.8-7.4,4.3l11.4,21.1h-9.2l-10-20.3h-5.6V146h-7.7V98.2z M806,118.4c1.1,0,2.2-0.1,3.3-0.2
				c1.1-0.1,2.1-0.4,3-0.8c0.9-0.4,1.7-1.1,2.2-2c0.6-0.9,0.9-2.1,0.9-3.7c0-1.4-0.3-2.5-0.8-3.4c-0.5-0.9-1.2-1.5-2.1-1.9
				c-0.9-0.4-1.8-0.7-2.8-0.8s-2-0.2-3-0.2h-6.6v13H806z"/>
			<path class="st0" d="M827.7,122.3c0-3.8,0.6-7.3,1.7-10.4c1.1-3.1,2.7-5.8,4.7-8c2-2.2,4.4-3.9,7.2-5.1c2.8-1.2,5.8-1.8,9.1-1.8
				c3.4,0,6.4,0.5,9.2,1.7c2.8,1.1,5.2,2.8,7.2,5c2,2.2,3.6,4.9,4.7,8c1.1,3.1,1.7,6.6,1.7,10.4c0,3.7-0.6,7.1-1.7,10.2
				c-1.1,3.1-2.7,5.7-4.7,7.9c-2,2.2-4.4,3.9-7.2,5.2c-2.8,1.2-5.9,1.9-9.2,1.9c-3.3,0-6.4-0.6-9.1-1.8c-2.8-1.2-5.2-2.9-7.2-5.1
				c-2-2.2-3.6-4.8-4.7-7.9C828.3,129.4,827.7,126,827.7,122.3z M835.7,121.7c0,2.6,0.4,4.9,1.1,7.1c0.7,2.2,1.7,4,3,5.6
				c1.3,1.6,2.8,2.8,4.6,3.7c1.8,0.9,3.8,1.4,6,1.4s4.3-0.4,6.1-1.4c1.8-0.9,3.4-2.1,4.7-3.7s2.3-3.4,3-5.6c0.7-2.2,1.1-4.5,1.1-7.1
				c0-2.4-0.4-4.6-1.1-6.7c-0.7-2.1-1.7-3.9-3-5.4c-1.3-1.6-2.9-2.8-4.7-3.6c-1.8-0.9-3.8-1.3-6.1-1.3s-4.2,0.4-6,1.3
				c-1.8,0.9-3.4,2.1-4.6,3.6c-1.3,1.6-2.3,3.4-3,5.4C836.1,117.1,835.7,119.4,835.7,121.7z"/>
		</g>
	</g>
	<g>
		<path class="st1" d="M314.2,153.8c4.2,4,9.1,7.2,14.7,9.4c5.6,2.2,11.6,3.4,17.8,3.4h51v-14.1h-20.5c1.1-0.8,2.1-1.7,3-2.6
			c2.6-2.5,4.8-5.4,6.5-8.7c1.7-3.2,3-6.6,3.9-10.3c0.9-3.6,1.3-7.4,1.3-11.1c0-6.3-1.2-12.3-3.6-17.7c-2.4-5.4-5.7-10.1-9.8-14.1
			c-4.1-4-8.9-7.1-14.4-9.4c-11.2-4.6-24.9-4.4-35.8,0.1c-5.5,2.3-10.5,5.5-14.6,9.6c-4.2,4.1-7.4,9-9.8,14.5
			c-2.3,5.6-3.5,11.7-3.5,18.1c0,6.6,1.2,12.7,3.7,18.3C306.7,144.9,310,149.8,314.2,153.8z M319.1,108.5c1.5-3.6,3.6-6.8,6.2-9.5
			c2.6-2.7,5.7-4.8,9.3-6.4c3.5-1.6,7.5-2.4,11.6-2.4c4.3,0,8.3,0.8,11.8,2.4c3.6,1.6,6.7,3.7,9.3,6.4c2.6,2.7,4.7,5.9,6.1,9.6
			c1.5,3.7,2.2,7.7,2.2,11.9c0,4.4-0.7,8.5-2.2,12.4c-1.4,3.8-3.5,7.2-6,10c-2.6,2.8-5.7,5-9.3,6.6c-7.2,3.2-16.8,3.2-23.9-0.1
			c-3.6-1.6-6.7-3.9-9.3-6.7c-2.6-2.8-4.6-6.2-6-10.1c-1.4-3.8-2.2-8-2.2-12.4C316.9,116,317.6,112.1,319.1,108.5z"/>
		<path class="st1" d="M404.4,77.5v56c0,5.2,0.9,10,2.7,14.3c1.8,4.3,4.3,8,7.4,11.2c3.1,3.1,6.9,5.6,11.1,7.3
			c4.2,1.7,8.8,2.5,13.7,2.5c4.9,0,9.5-0.9,13.7-2.5c4.2-1.7,8-4.2,11.1-7.3c3.1-3.1,5.6-6.9,7.4-11.2c1.8-4.2,2.7-9.1,2.7-14.3v-56
			h-15.5v54.2c0,2.5-0.3,5.1-1,7.7c-0.7,2.6-1.8,5-3.3,7.2c-1.5,2.1-3.5,3.9-5.9,5.3c-2.4,1.4-5.5,2-9.1,2c-3.6,0-6.7-0.7-9.1-2
			c-2.5-1.4-4.5-3.2-6-5.3c-1.5-2.2-2.7-4.6-3.3-7.2c-0.7-2.7-1-5.3-1-7.7V77.5H404.4z"/>
		<path class="st1" d="M560.4,88.4c-4-4.1-8.8-7.4-14.4-9.7c-11.1-4.7-25.5-4.7-36.6,0c-5.6,2.3-10.4,5.6-14.4,9.7
			c-4,4.1-7.1,9-9.4,14.5c-2.2,5.6-3.4,11.6-3.4,18.1c0,6.4,1.1,12.5,3.4,18.1c2.3,5.6,5.4,10.5,9.4,14.5c4,4.1,8.8,7.4,14.4,9.7
			c5.6,2.3,11.7,3.5,18.3,3.5c6.6,0,12.8-1.2,18.3-3.5c5.6-2.3,10.4-5.6,14.4-9.7c4-4.1,7.1-9,9.4-14.5c2.2-5.5,3.4-11.6,3.4-18.1
			c0-6.4-1.1-12.5-3.4-18.1C567.5,97.3,564.4,92.5,560.4,88.4z M555.1,133.2c-1.4,3.8-3.4,7.1-6,9.9c-2.6,2.8-5.7,5-9.3,6.7
			c-7.2,3.3-17.2,3.3-24.3,0c-3.6-1.7-6.7-3.9-9.3-6.7c-2.6-2.8-4.6-6.1-6-9.9c-1.4-3.8-2.1-7.9-2.1-12.2c0-4.3,0.7-8.4,2.1-12.2
			c1.4-3.8,3.4-7.1,6-9.9c2.6-2.8,5.7-5,9.3-6.7c3.6-1.6,7.7-2.5,12.2-2.5c4.5,0,8.6,0.8,12.2,2.5c3.6,1.7,6.7,3.9,9.3,6.7
			c2.6,2.8,4.6,6.1,6,9.9c1.4,3.8,2.1,7.9,2.1,12.2C557.2,125.3,556.5,129.4,555.1,133.2z"/>
		<polygon class="st1" points="573.5,92.3 600.9,92.3 600.9,166.6 616.4,166.6 616.4,92.3 643.8,92.3 643.8,77.5 573.5,77.5 		"/>
		<polygon class="st1" points="667.6,151.8 667.6,128.5 708,128.5 708,113.7 667.6,113.7 667.6,92.3 711,92.3 711,77.5 652.1,77.5 
			652.1,166.6 713.2,166.6 713.2,151.8 		"/>
		<path class="st0" d="M476.5,17.1c-7.3,0-13.2,5.9-13.2,13.2v3.2c0,7.3,5.9,13.2,13.2,13.2c7.3,0,13.2-5.9,13.2-13.2v-3.2
			C489.7,23,483.8,17.1,476.5,17.1z"/>
		<path class="st0" d="M522.9,16.4C519.4,6.5,514.1,0,505.3,0h-66h-66c-8.8,0-14.1,6.5-17.6,16.4l-17.5,51.4
			c6-1.2,12.9-1.5,12.9-1.5h0.8h87.5h87.5h0.8c0,0,6.9,0.3,12.8,1.5L522.9,16.4z M506.2,57.7c-5.2-3.4-16.3-7.8-18.5-7.8h-22.5
			c-2.2,0-13.3,4.4-18.5,7.8h-7.4h-85l15.1-40.6c1.8-4.9,6.9-8.2,11.3-8.2h58.5h58.5c4.4,0,9.5,3.2,11.3,8.2l15.2,40.6H506.2z"/>
		<path class="st0" d="M566.9,159.6c-4.6,4.8-10.3,8.6-16.7,11.3c-6.4,2.7-13.5,4.1-21.1,4.1H345.3c-7.2,0-14.1-1.3-20.6-3.9
			c-6.5-2.6-12.2-6.3-17-10.9c-2.9-2.8-5.4-5.9-7.6-9.4h0l7.5,37h0.2c0,0,0,17.1,0,18c0,10.6,8.6,19.2,19.2,19.2
			c10.6,0,19.2-8.6,19.2-19.2c0-0.9,0-18,0-18h181.5c0,0,0,17.1,0,18c0,10.6,8.6,19.2,19.2,19.2c10.6,0,19.2-8.6,19.2-19.2
			c0-0.9,0-18,0-18l7.3-36.4C571.5,154.4,569.3,157.2,566.9,159.6z"/>
		<path class="st0" d="M506.2,58c-5.2-3.4-16.3-7.8-18.5-7.8h-22.5c-2.2,0-13.3,4.4-18.5,7.8H506.2z"/>
		<g>
			<path class="st0" d="M0,78h58.7v14.3H15.8V114h40.7v14.3H15.8v24H61v14.3H0V78z"/>
			<path class="st0" d="M66.2,78h18.1l24.2,67l24.9-67h17l-35.8,88.6H101L66.2,78z"/>
			<path class="st0" d="M157.6,78h58.7v14.3h-42.9V114h40.7v14.3h-40.7v24h45.2v14.3h-61V78z"/>
			<path class="st0" d="M228.1,78h30.8c4.3,0,8.4,0.4,12.3,1.2c4,0.8,7.5,2.1,10.6,4.1c3.1,1.9,5.5,4.5,7.4,7.8
				c1.8,3.3,2.8,7.4,2.8,12.4c0,6.4-1.8,11.8-5.3,16.1c-3.5,4.3-8.6,7-15.2,7.9l23.5,39.2h-19l-20.5-37.6h-11.5v37.6h-15.8V78z
				 M256.2,115.5c2.3,0,4.5-0.1,6.8-0.3c2.3-0.2,4.3-0.7,6.2-1.5c1.9-0.8,3.4-2,4.6-3.6c1.2-1.6,1.8-3.9,1.8-6.8
				c0-2.6-0.5-4.7-1.6-6.3c-1.1-1.6-2.5-2.8-4.3-3.6c-1.8-0.8-3.7-1.3-5.8-1.6c-2.1-0.3-4.2-0.4-6.2-0.4h-13.6v24H256.2z"/>
		</g>
	</g>
</g>
<g>
	<g>
		<path class="st2" d="M886.7,466.6H743.2c-7.3,0-13.3-5.9-13.3-13.3v-62.6c0-7.3,5.9-13.3,13.3-13.3h143.6
			c7.3,0,13.3,5.9,13.3,13.3v62.6C900,460.7,894.1,466.6,886.7,466.6z M743.2,387.7c-1.7,0-3.1,1.4-3.1,3.1v62.6
			c0,1.7,1.4,3.1,3.1,3.1h143.6c1.7,0,3.1-1.4,3.1-3.1v-62.6c0-1.7-1.4-3.1-3.1-3.1H743.2z"/>
		<g>
			<path class="st2" d="M756.6,398.2H771c2.1,0,4.1,0.2,6,0.7s3.6,1.2,5.1,2.3c1.5,1.1,2.6,2.5,3.5,4.3c0.9,1.8,1.3,4,1.3,6.7
				c0,3-0.5,5.4-1.4,7.3s-2.2,3.3-3.8,4.3s-3.4,1.7-5.5,2.1c-2.1,0.4-4.3,0.5-6.5,0.5h-5.5V446h-7.7V398.2z M768.8,418.9
				c1.1,0,2.2,0,3.4-0.1c1.2-0.1,2.3-0.4,3.3-0.8c1-0.4,1.8-1.1,2.4-2c0.6-0.9,0.9-2.2,0.9-3.8c0-1.5-0.3-2.7-0.9-3.5
				c-0.6-0.9-1.3-1.6-2.2-2c-0.9-0.5-1.9-0.8-3-0.9s-2.1-0.2-3.2-0.2h-5.5v13.4H768.8z"/>
			<path class="st2" d="M792.4,398.2h14.9c2.1,0,4.1,0.2,6,0.6c1.9,0.4,3.6,1.2,5.1,2.2c1.5,1,2.7,2.4,3.6,4.2
				c0.9,1.8,1.3,4,1.3,6.7c0,3.5-0.9,6.4-2.6,8.7c-1.7,2.3-4.2,3.8-7.4,4.3l11.4,21.1h-9.2l-10-20.3h-5.6V446h-7.7V398.2z
				 M806,418.4c1.1,0,2.2-0.1,3.3-0.2c1.1-0.1,2.1-0.4,3-0.8c0.9-0.4,1.7-1.1,2.2-2c0.6-0.9,0.9-2.1,0.9-3.7c0-1.4-0.3-2.5-0.8-3.4
				c-0.5-0.9-1.2-1.5-2.1-1.9c-0.9-0.4-1.8-0.7-2.8-0.8s-2-0.2-3-0.2h-6.6v13H806z"/>
			<path class="st2" d="M827.7,422.3c0-3.8,0.6-7.3,1.7-10.4c1.1-3.1,2.7-5.8,4.7-8c2-2.2,4.4-3.9,7.2-5.1c2.8-1.2,5.8-1.8,9.1-1.8
				c3.4,0,6.4,0.5,9.2,1.7c2.8,1.1,5.2,2.8,7.2,5c2,2.2,3.6,4.9,4.7,8c1.1,3.1,1.7,6.6,1.7,10.4c0,3.7-0.6,7.1-1.7,10.2
				c-1.1,3.1-2.7,5.7-4.7,7.9c-2,2.2-4.4,3.9-7.2,5.2c-2.8,1.2-5.9,1.9-9.2,1.9c-3.3,0-6.4-0.6-9.1-1.8c-2.8-1.2-5.2-2.9-7.2-5.1
				c-2-2.2-3.6-4.8-4.7-7.9C828.3,429.4,827.7,426,827.7,422.3z M835.7,421.7c0,2.6,0.4,4.9,1.1,7.1c0.7,2.2,1.7,4,3,5.6
				c1.3,1.6,2.8,2.8,4.6,3.7c1.8,0.9,3.8,1.4,6,1.4s4.3-0.4,6.1-1.4c1.8-0.9,3.4-2.1,4.7-3.7s2.3-3.4,3-5.6c0.7-2.2,1.1-4.5,1.1-7.1
				c0-2.4-0.4-4.6-1.1-6.7c-0.7-2.1-1.7-3.9-3-5.4c-1.3-1.6-2.9-2.8-4.7-3.6c-1.8-0.9-3.8-1.3-6.1-1.3s-4.2,0.4-6,1.3
				c-1.8,0.9-3.4,2.1-4.6,3.6c-1.3,1.6-2.3,3.4-3,5.4C836.1,417.1,835.7,419.4,835.7,421.7z"/>
		</g>
	</g>
	<g>
		<path class="st2" d="M314.2,453.8c4.2,4,9.1,7.2,14.7,9.4c5.6,2.2,11.6,3.4,17.8,3.4h51v-14.1h-20.5c1.1-0.8,2.1-1.7,3-2.6
			c2.6-2.5,4.8-5.4,6.5-8.7c1.7-3.2,3-6.6,3.9-10.3c0.9-3.6,1.3-7.4,1.3-11.1c0-6.3-1.2-12.3-3.6-17.7c-2.4-5.4-5.7-10.1-9.8-14.1
			c-4.1-4-8.9-7.1-14.4-9.4c-11.2-4.6-24.9-4.4-35.8,0.1c-5.5,2.3-10.5,5.5-14.6,9.6c-4.2,4.1-7.4,9-9.8,14.5
			c-2.3,5.6-3.5,11.7-3.5,18.1c0,6.6,1.2,12.7,3.7,18.3C306.7,444.9,310,449.8,314.2,453.8z M319.1,408.5c1.5-3.6,3.6-6.8,6.2-9.5
			c2.6-2.7,5.7-4.8,9.3-6.4c3.5-1.6,7.5-2.4,11.6-2.4c4.3,0,8.3,0.8,11.8,2.4c3.6,1.6,6.7,3.7,9.3,6.4c2.6,2.7,4.7,5.9,6.1,9.6
			c1.5,3.7,2.2,7.7,2.2,11.9c0,4.4-0.7,8.5-2.2,12.4c-1.4,3.8-3.5,7.2-6,10c-2.6,2.8-5.7,5-9.3,6.6c-7.2,3.2-16.8,3.2-23.9-0.1
			c-3.6-1.6-6.7-3.9-9.3-6.7c-2.6-2.8-4.6-6.2-6-10.1c-1.4-3.8-2.2-8-2.2-12.4C316.9,416,317.6,412.1,319.1,408.5z"/>
		<path class="st2" d="M404.4,377.5v56c0,5.2,0.9,10,2.7,14.3c1.8,4.3,4.3,8,7.4,11.2c3.1,3.1,6.9,5.6,11.1,7.3
			c4.2,1.7,8.8,2.5,13.7,2.5c4.9,0,9.5-0.9,13.7-2.5c4.2-1.7,8-4.2,11.1-7.3c3.1-3.1,5.6-6.9,7.4-11.2c1.8-4.2,2.7-9.1,2.7-14.3v-56
			h-15.5v54.2c0,2.5-0.3,5.1-1,7.7c-0.7,2.6-1.8,5-3.3,7.2c-1.5,2.1-3.5,3.9-5.9,5.3c-2.4,1.4-5.5,2-9.1,2c-3.6,0-6.7-0.7-9.1-2
			c-2.5-1.4-4.5-3.2-6-5.3c-1.5-2.2-2.7-4.6-3.3-7.2c-0.7-2.7-1-5.3-1-7.7v-54.2H404.4z"/>
		<path class="st2" d="M560.4,388.4c-4-4.1-8.8-7.4-14.4-9.7c-11.1-4.7-25.5-4.7-36.6,0c-5.6,2.3-10.4,5.6-14.4,9.7
			c-4,4.1-7.1,9-9.4,14.5c-2.2,5.6-3.4,11.6-3.4,18.1c0,6.4,1.1,12.5,3.4,18.1c2.3,5.6,5.4,10.5,9.4,14.5c4,4.1,8.8,7.4,14.4,9.7
			c5.6,2.3,11.7,3.5,18.3,3.5c6.6,0,12.8-1.2,18.3-3.5c5.6-2.3,10.4-5.6,14.4-9.7c4-4.1,7.1-9,9.4-14.5c2.2-5.5,3.4-11.6,3.4-18.1
			c0-6.4-1.1-12.5-3.4-18.1C567.5,397.3,564.4,392.5,560.4,388.4z M555.1,433.2c-1.4,3.8-3.4,7.1-6,9.9c-2.6,2.8-5.7,5-9.3,6.7
			c-7.2,3.3-17.2,3.3-24.3,0c-3.6-1.7-6.7-3.9-9.3-6.7c-2.6-2.8-4.6-6.1-6-9.9c-1.4-3.8-2.1-7.9-2.1-12.2c0-4.3,0.7-8.4,2.1-12.2
			c1.4-3.8,3.4-7.1,6-9.9c2.6-2.8,5.7-5,9.3-6.7c3.6-1.6,7.7-2.5,12.2-2.5c4.5,0,8.6,0.8,12.2,2.5c3.6,1.7,6.7,3.9,9.3,6.7
			c2.6,2.8,4.6,6.1,6,9.9c1.4,3.8,2.1,7.9,2.1,12.2C557.2,425.3,556.5,429.4,555.1,433.2z"/>
		<polygon class="st2" points="573.5,392.3 600.9,392.3 600.9,466.6 616.4,466.6 616.4,392.3 643.8,392.3 643.8,377.5 573.5,377.5 
					"/>
		<polygon class="st2" points="667.6,451.8 667.6,428.5 708,428.5 708,413.7 667.6,413.7 667.6,392.3 711,392.3 711,377.5 
			652.1,377.5 652.1,466.6 713.2,466.6 713.2,451.8 		"/>
		<path class="st2" d="M476.5,317.1c-7.3,0-13.2,5.9-13.2,13.2v3.2c0,7.3,5.9,13.2,13.2,13.2c7.3,0,13.2-5.9,13.2-13.2v-3.2
			C489.7,323,483.8,317.1,476.5,317.1z"/>
		<path class="st2" d="M522.9,316.4c-3.6-9.9-8.9-16.4-17.6-16.4h-66h-66c-8.8,0-14.1,6.5-17.6,16.4l-17.5,51.4
			c6-1.2,12.9-1.5,12.9-1.5h0.8h87.5h87.5h0.8c0,0,6.9,0.3,12.8,1.5L522.9,316.4z M506.2,357.7c-5.2-3.4-16.3-7.8-18.5-7.8h-22.5
			c-2.2,0-13.3,4.4-18.5,7.8h-7.4h-85l15.1-40.6c1.8-4.9,6.9-8.2,11.3-8.2h58.5h58.5c4.4,0,9.5,3.2,11.3,8.2l15.2,40.6H506.2z"/>
		<path class="st2" d="M566.9,459.6c-4.6,4.8-10.3,8.6-16.7,11.3c-6.4,2.7-13.5,4.1-21.1,4.1H345.3c-7.2,0-14.1-1.3-20.6-3.9
			c-6.5-2.6-12.2-6.3-17-10.9c-2.9-2.8-5.4-5.9-7.6-9.4h0l7.5,37h0.2c0,0,0,17.1,0,18c0,10.6,8.6,19.2,19.2,19.2
			c10.6,0,19.2-8.6,19.2-19.2c0-0.9,0-18,0-18h181.5c0,0,0,17.1,0,18c0,10.6,8.6,19.2,19.2,19.2c10.6,0,19.2-8.6,19.2-19.2
			c0-0.9,0-18,0-18l7.3-36.4C571.5,454.4,569.3,457.2,566.9,459.6z"/>
		<path class="st2" d="M506.2,358c-5.2-3.4-16.3-7.8-18.5-7.8h-22.5c-2.2,0-13.3,4.4-18.5,7.8H506.2z"/>
		<g>
			<path class="st2" d="M0,378h58.7v14.3H15.8V414h40.7v14.3H15.8v24H61v14.3H0V378z"/>
			<path class="st2" d="M66.2,378h18.1l24.2,67l24.9-67h17l-35.8,88.6H101L66.2,378z"/>
			<path class="st2" d="M157.6,378h58.7v14.3h-42.9V414h40.7v14.3h-40.7v24h45.2v14.3h-61V378z"/>
			<path class="st2" d="M228.1,378h30.8c4.3,0,8.4,0.4,12.3,1.2c4,0.8,7.5,2.1,10.6,4.1c3.1,1.9,5.5,4.5,7.4,7.8
				c1.8,3.3,2.8,7.4,2.8,12.4c0,6.4-1.8,11.8-5.3,16.1c-3.5,4.3-8.6,7-15.2,7.9l23.5,39.2h-19l-20.5-37.6h-11.5v37.6h-15.8V378z
				 M256.2,415.5c2.3,0,4.5-0.1,6.8-0.3c2.3-0.2,4.3-0.7,6.2-1.5c1.9-0.8,3.4-2,4.6-3.6c1.2-1.6,1.8-3.9,1.8-6.8
				c0-2.6-0.5-4.7-1.6-6.3c-1.1-1.6-2.5-2.8-4.3-3.6c-1.8-0.8-3.7-1.3-5.8-1.6c-2.1-0.3-4.2-0.4-6.2-0.4h-13.6v24H256.2z"/>
		</g>
	</g>
</g>
</svg>
