<?xml version="1.0" standalone="no"?>
<!DOCTYPE svg PUBLIC "-//W3C//DTD SVG 20010904//EN"
 "http://www.w3.org/TR/2001/REC-SVG-20010904/DTD/svg10.dtd">
<svg version="1.0" xmlns="http://www.w3.org/2000/svg"
 width="508.000000pt" height="508.000000pt" viewBox="0 0 508.000000 508.000000"
 preserveAspectRatio="xMidYMid meet">
<metadata>
Created by potrace 1.11, written by Peter Selinger 2001-2013
</metadata>
<g transform="translate(0.000000,508.000000) scale(0.100000,-0.100000)"
fill="#000000" stroke="none">
<path d="M2433 4534 c-55 -20 -109 -72 -135 -131 -21 -46 -22 -63 -22 -328 0
-261 1 -283 21 -325 24 -53 63 -94 118 -123 38 -21 53 -22 335 -22 285 0 296
1 336 22 56 30 109 94 124 149 9 32 13 127 13 314 0 253 -1 270 -21 312 -27
54 -70 100 -120 124 -33 17 -67 19 -322 21 -232 2 -293 -1 -327 -13z"/>
<path d="M3639 3942 c-31 -14 -69 -50 -79 -76 -5 -15 -10 -99 -10 -187 0 -177
5 -197 61 -239 32 -23 39 -24 199 -24 156 0 167 1 207 23 59 34 67 63 66 253
-1 245 -15 258 -268 257 -88 0 -167 -3 -176 -7z"/>
<path d="M1218 3639 c-81 -19 -155 -86 -189 -171 -16 -38 -18 -81 -18 -344 -1
-359 2 -379 82 -458 81 -80 97 -83 452 -84 273 0 305 2 352 20 65 24 126 81
155 145 20 46 21 62 22 368 0 304 -1 322 -21 366 -29 64 -90 123 -154 146 -48
18 -79 20 -348 20 -163 1 -313 -3 -333 -8z"/>
<path d="M2989 3065 c-338 -68 -587 -368 -590 -711 -1 -88 17 -204 40 -259
113 -271 294 -421 581 -482 14 -3 70 -6 125 -6 143 1 263 35 385 111 67 41
138 108 152 142 43 103 -60 201 -163 155 -21 -10 -39 -21 -39 -25 0 -17 -118
-91 -178 -111 -92 -31 -230 -31 -321 0 -155 53 -259 160 -315 322 -8 24 -13
45 -11 47 2 2 252 4 556 4 433 0 560 3 585 13 48 20 75 65 75 128 3 183 -106
393 -269 523 -65 51 -213 126 -287 144 -72 18 -248 21 -326 5z m265 -245 c78
-17 180 -76 239 -140 51 -55 115 -165 103 -177 -7 -7 -914 -8 -921 -1 -7 7 47
109 82 155 39 51 132 118 200 143 98 36 189 42 297 20z"/>
<path d="M1445 2169 c-82 -6 -105 -17 -142 -66 l-28 -36 0 -221 c0 -216 1
-222 23 -254 46 -64 78 -72 291 -72 217 0 252 8 298 68 l28 37 3 205 c3 197 2
207 -20 250 -39 75 -80 91 -245 93 -76 1 -169 -1 -208 -4z"/>
<path d="M3827 1813 c-13 -13 -7 -21 21 -27 27 -6 27 -7 27 -89 0 -66 3 -82
15 -82 12 0 15 16 15 80 0 71 2 81 20 85 11 3 21 14 23 23 3 14 -5 17 -56 17
-32 0 -62 -3 -65 -7z"/>
<path d="M3994 1812 c-6 -4 -9 -43 -8 -97 2 -110 1 -105 18 -105 9 0 13 14 13
50 0 67 8 71 24 15 15 -49 32 -71 48 -61 5 3 17 32 28 64 l18 57 3 -63 c3 -53
6 -63 20 -60 14 3 17 17 18 88 0 47 -3 93 -8 103 -16 32 -36 18 -58 -40 -11
-32 -23 -65 -27 -73 -3 -9 -15 15 -30 58 -23 68 -35 81 -59 64z"/>
<path d="M2185 1298 c-73 -16 -122 -55 -150 -120 -12 -30 -15 -81 -15 -255 0
-121 5 -235 11 -256 14 -51 77 -112 131 -125 57 -15 441 -14 491 1 48 13 101
63 122 113 13 33 16 75 13 276 l-3 236 -30 44 c-19 26 -48 52 -77 66 -44 22
-59 24 -252 25 -113 1 -221 -1 -241 -5z"/>
</g>
</svg>
