<?xml version="1.0" standalone="no"?>
<!DOCTYPE svg PUBLIC "-//W3C//DTD SVG 1.1//EN" "http://www.w3.org/Graphics/SVG/1.1/DTD/svg11.dtd" >
<svg xmlns="http://www.w3.org/2000/svg">
<metadata></metadata>
<defs>
<font id="adelle_sansitalic" horiz-adv-x="1505" >
<font-face units-per-em="2048" ascent="1546" descent="-502" />
<missing-glyph horiz-adv-x="438" />
<glyph unicode="&#xfb01;" horiz-adv-x="1206" d="M51 -434l191 1349h-156l20 138h156l25 176q49 338 350 338q106 0 178 -35l-27 -137q-67 24 -139 24q-75 0 -118.5 -41.5t-57.5 -142.5l-24 -182h661l-147 -1053h-187l127 915h-475l-190 -1349h-187zM934 1368q0 72 39.5 112t111.5 40q55 0 85 -28t30 -81q0 -71 -40 -111 t-111 -40q-55 0 -85 28.5t-30 79.5z" />
<glyph unicode="&#xfb02;" horiz-adv-x="1206" d="M51 -434l191 1349h-156l20 138h156l25 176q49 338 350 338q112 0 180 -35l-24 -137q-70 24 -140 24q-75 0 -120.5 -41.5t-59.5 -142.5l-24 -182h284l-20 -138h-285l-190 -1349h-187zM776 0l217 1546h187l-217 -1546h-187z" />
<glyph unicode="&#xfb03;" horiz-adv-x="1869" d="M51 -434l191 1349h-156l20 138h156l25 176q46 338 354 338q108 0 184 -37l-26 -137q-72 26 -144 26q-74 0 -121 -41.5t-61 -144.5l-24 -180h477l24 176q49 338 350 338q107 0 179 -35l-27 -137q-67 24 -139 24q-75 0 -118.5 -41.5t-57.5 -142.5l-25 -182h662l-148 -1053 h-186l127 915h-475l-191 -1349h-186l190 1349h-477l-190 -1349h-187zM1597 1368q0 72 40 112t112 40q55 0 85 -28t30 -81q0 -70 -40.5 -110.5t-111.5 -40.5q-55 0 -85 28.5t-30 79.5z" />
<glyph unicode="&#xfb04;" horiz-adv-x="1867" d="M51 -434l191 1349h-156l20 138h156l25 176q46 338 354 338q108 0 184 -37l-26 -137q-72 26 -144 26q-74 0 -121 -41.5t-61 -144.5l-24 -180h475l24 176q49 338 350 338q113 0 181 -35l-25 -137q-70 24 -139 24q-75 0 -120.5 -41.5t-59.5 -142.5l-25 -182h285l-21 -138 h-284l-191 -1349h-186l190 1349h-475l-190 -1349h-187zM1438 0l217 1546h186l-217 -1546h-186z" />
<glyph horiz-adv-x="2048" />
<glyph horiz-adv-x="2048" />
<glyph unicode="&#xd;" horiz-adv-x="2048" />
<glyph unicode=" "  horiz-adv-x="438" />
<glyph unicode="&#x09;" horiz-adv-x="438" />
<glyph unicode="&#xa0;" horiz-adv-x="438" />
<glyph unicode="!" horiz-adv-x="542" d="M47 82q0 73 41.5 113.5t116.5 40.5q121 0 121 -109q0 -73 -40.5 -112.5t-115.5 -39.5q-123 0 -123 107zM156 383l118 1100h207l-186 -1100h-139z" />
<glyph unicode="&#x22;" horiz-adv-x="776" d="M131 952l74 531h184l-74 -531h-184zM477 952l74 531h184l-73 -531h-185z" />
<glyph unicode="#" horiz-adv-x="1243" d="M-2 295l51 135h225l91 303h-236l49 137h228l75 271h150l-78 -271h244l77 271h148l-78 -271h236l-47 -137h-230l-86 -303h234l-47 -135h-226l-88 -295h-147l88 295h-248l-88 -295h-148l86 295h-235zM422 430h248l86 303h-244z" />
<glyph unicode="$" horiz-adv-x="1067" d="M8 397l166 27q6 -61 17 -104t33 -82t61 -63t96 -32l78 535q-57 22 -94.5 39.5t-83 48t-72.5 64t-45.5 84t-18.5 112.5q0 179 119 291t307 133l25 172h149l-24 -174q299 -42 299 -387l-168 -19q-2 118 -40 182t-120 81l-74 -506q46 -18 71 -29t66 -31.5t64.5 -37.5 t53 -43.5t44.5 -54t26 -65t11 -79.5q0 -108 -36.5 -193.5t-100.5 -139t-142.5 -83.5t-170.5 -37l-25 -172h-147l24 174q-176 21 -259 119t-89 270zM334 1055q0 -123 149 -197l66 445q-101 -20 -158 -87t-57 -161zM524 145q112 18 180 87.5t68 183.5q0 76 -46.5 124.5 t-131.5 84.5z" />
<glyph unicode="%" horiz-adv-x="1646" d="M137 1075q0 91 25 169t73 137.5t123.5 93.5t171.5 34q146 0 218.5 -80t72.5 -229q0 -91 -24 -168.5t-70.5 -137.5t-122 -94t-172.5 -34q-152 0 -223.5 84.5t-71.5 224.5zM193 -33l1112 1516h172l-1110 -1516h-174zM303 1071q0 -180 141 -180q213 0 213 303 q0 92 -31.5 140t-107.5 48q-60 0 -103.5 -26.5t-67 -72t-34 -98t-10.5 -114.5zM868 285q0 122 43 218.5t133 156t216 59.5q292 0 292 -311q0 -90 -24 -167.5t-71 -137.5t-122.5 -94t-171.5 -34q-152 0 -223.5 85t-71.5 225zM1032 279q0 -181 144 -181q213 0 213 305 q0 189 -140 189q-60 0 -103.5 -26.5t-67.5 -72.5t-35 -99t-11 -115z" />
<glyph unicode="&#x26;" horiz-adv-x="1443" d="M76 332q0 160 84.5 272.5t253.5 194.5q-43 114 -43 229q0 183 119.5 292.5t302.5 109.5q56 0 105.5 -13.5t89.5 -41t63.5 -74t23.5 -107.5q0 -86 -30 -154t-92 -120t-136.5 -90t-183.5 -78q46 -101 129.5 -234t155.5 -219q114 136 159 401h166q-53 -328 -219 -501 q86 -76 168 -76q48 0 98 20l21 -131q-63 -35 -156 -35q-81 0 -144.5 27.5t-127.5 81.5q-160 -111 -396 -111q-189 0 -300 99t-111 258zM266 362q0 -110 66 -177.5t203 -67.5q117 0 241 73q-181 204 -313 486q-92 -52 -144.5 -126t-52.5 -188zM559 1053q0 -94 31 -189 q176 71 246.5 135t70.5 162q0 62 -33.5 98.5t-101.5 36.5q-93 0 -153 -63.5t-60 -179.5z" />
<glyph unicode="'" horiz-adv-x="430" d="M131 952l74 531h184l-74 -531h-184z" />
<glyph unicode="(" horiz-adv-x="649" d="M92 416q0 129 26.5 257t67.5 233t103 214t120.5 190.5t131.5 172.5h198q-112 -146 -188.5 -264t-139.5 -250.5t-93.5 -270t-30.5 -286.5q0 -349 180 -725l-191 2q-184 356 -184 727z" />
<glyph unicode=")" horiz-adv-x="649" d="M-131 -313q112 146 188.5 263.5t140 250.5t94 270.5t30.5 286.5q0 347 -181 725l191 -2q184 -356 184 -727q0 -129 -26.5 -257t-67.5 -233t-102.5 -214t-120 -191t-131.5 -172h-199z" />
<glyph unicode="*" horiz-adv-x="962" d="M186 1241l41 84l258 -63l78 284h86l-6 -284l270 65l15 -84l-260 -123l127 -248l-76 -53l-182 199l-246 -203l-68 55l195 252z" />
<glyph unicode="+" horiz-adv-x="1165" d="M172 575l23 166h299l45 308h170l-43 -308h301l-23 -166h-301l-45 -313h-170l43 313h-299z" />
<glyph unicode="," horiz-adv-x="477" d="M-63 -244l178 457h209l-242 -475z" />
<glyph unicode="-" horiz-adv-x="647" d="M18 518l25 170h555l-25 -170h-555z" />
<glyph unicode="." horiz-adv-x="471" d="M25 86q0 77 41.5 117.5t119.5 40.5q121 0 121 -111q0 -77 -41 -117.5t-119 -40.5q-122 0 -122 111z" />
<glyph unicode="/" horiz-adv-x="776" d="M-104 -188l819 1734h174l-817 -1734h-176z" />
<glyph unicode="0" horiz-adv-x="1204" d="M102 469q0 136 19 301q15 124 43 229t77 201t114.5 163t160 106.5t209.5 39.5q397 0 397 -471q0 -150 -14 -282q-81 -781 -598 -781q-94 0 -165 23.5t-116.5 65t-74.5 104.5t-40.5 136t-11.5 165zM291 485q0 -86 8 -141q14 -111 66 -168t155 -57q333 0 402 653 q14 161 14 258q0 74 -8 123q-33 209 -221 209q-322 0 -398 -610q-14 -111 -18 -267z" />
<glyph unicode="1" horiz-adv-x="843" d="M154 1163v146q148 12 254 53t186 121h104l-209 -1483h-182l174 1231q-52 -29 -158.5 -48.5t-168.5 -19.5z" />
<glyph unicode="2" horiz-adv-x="1081" d="M10 0l21 147l407 426q102 107 158 168.5t107.5 125t74 107.5t35 90t12.5 99q0 104 -51.5 152.5t-159.5 48.5q-225 0 -301 -262l-161 31q44 191 176 283.5t315 92.5q171 0 271 -82.5t100 -240.5q0 -41 -6 -80t-14 -72t-28.5 -72t-35.5 -66.5t-49 -70.5t-56.5 -70 t-70.5 -78t-77 -81t-91 -92q-29 -30 -155 -156t-185 -192h645l-23 -156h-858z" />
<glyph unicode="3" horiz-adv-x="1126" d="M31 315l168 35q3 -36 8.5 -64.5t21.5 -60.5t40 -53.5t66.5 -36t98.5 -14.5q66 0 125 20t107.5 59.5t77 107.5t28.5 155q0 244 -285 244h-129l21 145h94q167 0 270 90t103 232q0 86 -47 138t-154 52q-123 0 -189.5 -54t-109.5 -165l-162 33q108 331 486 331q174 0 269 -83 t95 -226q0 -89 -31 -162t-84.5 -121.5t-113 -80t-127.5 -48.5l-2 -4q63 -14 110.5 -37t88 -60t62 -95.5t21.5 -134.5q0 -216 -142 -349t-378 -133q-389 0 -407 340z" />
<glyph unicode="4" horiz-adv-x="1140" d="M20 365l19 135l764 983h241l-135 -963h174l-20 -155h-178l-51 -365h-179l52 365h-687zM233 520h496l111 783z" />
<glyph unicode="5" horiz-adv-x="1107" d="M25 322l163 38q3 -43 15.5 -80t39 -74t77 -59t120.5 -22q53 0 102.5 13t97.5 44.5t83.5 78.5t57.5 119.5t22 162.5q0 127 -58.5 188.5t-166.5 61.5q-149 0 -291 -121l-127 57l162 754h712l-22 -158h-559l-119 -487q141 104 305 104q70 0 130.5 -20.5t111.5 -63.5 t80.5 -120.5t29.5 -180.5q0 -257 -153.5 -419.5t-409.5 -162.5q-174 0 -283.5 89t-119.5 258z" />
<glyph unicode="6" horiz-adv-x="1173" d="M123 498q0 78 8 161.5t29 184.5t53.5 192.5t86 179t121.5 151.5t165 103t211 39q142 0 234.5 -83.5t101.5 -245.5l-166 -37q-10 120 -61 170.5t-140 50.5q-79 0 -147.5 -39t-116.5 -101.5t-85.5 -146.5t-59.5 -167.5t-33 -170.5q67 67 172 115.5t213 48.5 q167 0 257.5 -96t90.5 -260q0 -172 -69.5 -303t-190.5 -200t-273 -69q-91 0 -160.5 26t-114.5 71.5t-73.5 112.5t-40.5 143.5t-12 169.5zM307 459q0 -340 238 -340q138 0 229.5 106t91.5 301q0 113 -51.5 171.5t-152.5 58.5q-87 0 -181 -49.5t-168 -120.5q-6 -64 -6 -127z " />
<glyph unicode="7" horiz-adv-x="1048" d="M63 0l787 1325h-731l22 158h934l-20 -142l-793 -1341h-199z" />
<glyph unicode="8" horiz-adv-x="1105" d="M25 315q0 89 27 160t80.5 124t116 91t150.5 76q-98 50 -157.5 129t-59.5 186q0 135 70 233.5t184 146.5t256 48q182 0 286.5 -80.5t104.5 -224.5q0 -267 -352 -432q50 -24 82.5 -43t71.5 -49.5t62 -63t38.5 -80.5t15.5 -104q0 -200 -148.5 -328.5t-395.5 -128.5 q-211 0 -321.5 95t-110.5 245zM211 332q0 -95 66 -155t196 -60q84 0 150.5 26t105.5 68.5t59.5 93t20.5 103.5q0 48 -17.5 88.5t-41.5 67t-65 51.5t-71.5 39t-78.5 32q-172 -73 -248 -149t-76 -205zM369 1112q0 -176 223 -270q161 87 235 163.5t74 174.5q0 95 -58 144.5 t-173 49.5q-134 0 -217.5 -73t-83.5 -189z" />
<glyph unicode="9" horiz-adv-x="1173" d="M35 297l162 47q15 -109 73.5 -166t155.5 -57q82 0 151 33.5t118.5 90t87 135t59.5 166t32 185.5q-61 -64 -177 -114t-226 -50q-165 0 -252.5 103.5t-87.5 271.5q0 261 146.5 414t379.5 153q89 0 158.5 -27t116 -74.5t77 -116t43.5 -147t13 -171.5q0 -175 -24 -325 t-75 -274.5t-126 -213t-181.5 -137t-236.5 -48.5q-164 0 -265.5 80t-121.5 242zM313 965q0 -252 203 -252q89 0 191 50.5t170 121.5q8 90 8 137q0 346 -238 346q-140 0 -237 -106.5t-97 -296.5z" />
<glyph unicode=":" horiz-adv-x="509" d="M41 86q0 76 42 117t120 41q121 0 121 -111q0 -77 -41 -117.5t-119 -40.5q-123 0 -123 111zM166 862q0 76 42 117t120 41q121 0 121 -111q0 -77 -41 -117t-119 -40q-123 0 -123 110z" />
<glyph unicode=";" horiz-adv-x="542" d="M-63 -244l178 457h209l-242 -475zM199 862q0 77 41.5 117.5t119.5 40.5q121 0 121 -111q0 -77 -40.5 -117t-118.5 -40q-123 0 -123 110z" />
<glyph unicode="&#x3c;" horiz-adv-x="1167" d="M143 494l27 190l819 315l-22 -172l-648 -239l582 -232l-24 -163z" />
<glyph unicode="=" horiz-adv-x="1167" d="M141 326l25 170h766l-25 -170h-766zM188 657l25 170h764l-25 -170h-764z" />
<glyph unicode="&#x3e;" horiz-adv-x="1165" d="M145 203l23 172l645 231l-580 236l23 157l733 -315l-26 -182z" />
<glyph unicode="?" horiz-adv-x="1046" d="M127 1130q42 162 163.5 260.5t334.5 98.5q82 0 151.5 -20t125.5 -61t88 -111t32 -162q0 -118 -38 -208.5t-109.5 -150t-161.5 -96t-207 -55.5l-33 -244h-180l51 367q83 7 146 18t130 36.5t110 63.5t71 101t28 147q0 113 -62.5 168t-168.5 55q-71 0 -125.5 -18.5t-103 -73 t-74.5 -145.5zM201 82q0 74 40.5 114t116.5 40q121 0 121 -109q0 -74 -40 -113t-115 -39q-123 0 -123 107z" />
<glyph unicode="@" horiz-adv-x="1724" d="M49 272q0 202 70.5 371t194.5 284.5t296 179.5t373 64q186 0 331.5 -65t229.5 -193t84 -301q0 -152 -36 -272t-99.5 -195t-146 -114t-179.5 -39q-84 0 -135 30.5t-67 83.5q-51 -55 -124 -88.5t-151 -33.5q-120 0 -178.5 85t-58.5 216q0 230 119.5 379t306.5 149 q111 0 182 -74l20 62h127l-90 -518q-10 -55 -10 -86q0 -42 19.5 -63t70.5 -21q113 0 192.5 128.5t79.5 348.5q0 215 -137.5 330.5t-382.5 115.5q-172 0 -312.5 -57.5t-232.5 -158t-142 -237.5t-50 -296q0 -244 141 -376t381 -132q130 0 248.5 34.5t200.5 94.5l63 -113 q-95 -76 -236.5 -114.5t-301.5 -38.5q-192 0 -340 72.5t-234 216.5t-86 341zM608 299q0 -190 129 -190q64 0 124 35.5t104 95.5l65 387q-58 61 -147 61q-119 0 -197 -100.5t-78 -288.5z" />
<glyph unicode="A" horiz-adv-x="1318" d="M-35 0l684 1483h242l297 -1483h-197l-84 451h-547l-202 -451h-193zM424 602h459l-131 719h-2z" />
<glyph unicode="B" horiz-adv-x="1253" d="M104 0l203 1483h500q387 0 387 -312q0 -89 -28 -160t-77.5 -118t-108.5 -76.5t-130 -44.5v-4q149 -20 223 -100t74 -209q0 -459 -592 -459h-451zM307 145h244q75 0 131 6.5t110 26.5t87.5 54t54 90.5t20.5 134.5q0 58 -20.5 100.5t-53 66.5t-84 38t-101 18t-117.5 4h-199 zM399 831h207q46 0 88 5.5t88.5 17.5t84.5 36t69 57t48 84t17 114q0 52 -16 87.5t-41 55.5t-73.5 30.5t-95.5 13.5t-124 3h-184z" />
<glyph unicode="C" horiz-adv-x="1374" d="M96 573q0 216 57 392t159 295.5t245.5 184t314.5 64.5q236 0 366 -135q119 -123 119 -337q0 -21 -1 -44l-174 -16v14q0 175 -72 267q-76 96 -250 96q-258 0 -414.5 -200t-156.5 -562q0 -465 387 -465q165 0 264.5 77.5t157.5 239.5l166 -32q-34 -118 -97.5 -205 t-147 -136.5t-176 -72.5t-198.5 -23q-141 0 -247.5 43t-172 123.5t-97.5 188.5t-32 243z" />
<glyph unicode="D" horiz-adv-x="1447" d="M104 0l203 1483h441q318 0 471 -156t153 -438q0 -155 -32 -288.5t-100 -244.5t-168 -190t-242.5 -122.5t-317.5 -43.5h-408zM309 152h221q313 0 482.5 190t169.5 547q0 238 -118.5 340t-350.5 102h-242z" />
<glyph unicode="E" horiz-adv-x="1140" d="M104 0l203 1483h838l-19 -154h-657l-68 -506h615l-23 -153h-614l-70 -516h682l-22 -154h-865z" />
<glyph unicode="F" horiz-adv-x="1085" d="M104 0l203 1483h838l-19 -154h-657l-72 -528h604l-18 -152h-606l-90 -649h-183z" />
<glyph unicode="G" horiz-adv-x="1445" d="M96 582q0 286 98 496.5t274.5 320.5t410.5 110q237 0 363 -121q115 -111 115 -328q0 -20 -1 -42l-174 -19q1 15 1 29q0 161 -73 241q-79 87 -246 87q-267 0 -421 -205.5t-154 -560.5q0 -128 27.5 -220t80.5 -144.5t120.5 -76.5t156.5 -24q92 0 172 32.5t134 85.5t88 117 t44 132l18 139h-380l20 139h555l-106 -770h-136l4 197q-53 -96 -183.5 -159t-280.5 -63q-136 0 -238 44t-164.5 125t-93.5 190.5t-31 247.5z" />
<glyph unicode="H" horiz-adv-x="1441" d="M102 0l203 1483h182l-88 -643h697l88 643h184l-203 -1483h-182l90 684h-696l-90 -684h-185z" />
<glyph unicode="I" horiz-adv-x="561" d="M104 0l203 1483h182l-202 -1483h-183z" />
<glyph unicode="J" horiz-adv-x="1017" d="M14 317l172 29q7 -55 16.5 -90t30.5 -67.5t58 -48t92 -15.5q102 0 162.5 51.5t79.5 188.5l153 1118h183l-150 -1123q-28 -206 -139.5 -295.5t-296.5 -89.5q-172 0 -265 86t-96 256z" />
<glyph unicode="K" horiz-adv-x="1277" d="M104 0l203 1483h182l-98 -721l729 721h219l-651 -641l475 -842h-213l-405 709l-185 -181l-73 -528h-183z" />
<glyph unicode="L" horiz-adv-x="1093" d="M104 0l203 1483h182l-180 -1327h647l-22 -156h-830z" />
<glyph unicode="M" horiz-adv-x="1777" d="M104 0l203 1483h277l243 -1274h4l594 1274h281l-203 -1483h-174l176 1288h-2l-606 -1288h-195l-249 1290h-2l-177 -1290h-170z" />
<glyph unicode="N" horiz-adv-x="1474" d="M104 0l203 1483h242l514 -1245l172 1245h168l-203 -1483h-221l-530 1257l-175 -1257h-170z" />
<glyph unicode="O" d="M96 594q0 157 32 295t96.5 252t157 196t219.5 127t278 45q144 0 253.5 -46.5t175 -129.5t98 -190.5t32.5 -237.5q0 -280 -90 -489.5t-264.5 -325t-413.5 -115.5q-147 0 -258.5 46t-179.5 130t-102 195t-34 248zM289 608q0 -100 24 -198q75 -277 375 -277 q250 0 401.5 203.5t151.5 550.5q0 109 -24 194q-37 132 -128.5 201.5t-232.5 69.5q-255 0 -411 -200.5t-156 -543.5z" />
<glyph unicode="P" horiz-adv-x="1220" d="M104 0l203 1483h438q119 0 208.5 -29.5t141.5 -81.5t77.5 -117t25.5 -143q0 -283 -161 -425t-459 -142h-218l-75 -545h-181zM381 696h203q95 0 167.5 18t132 61t91 122t31.5 193q0 71 -23.5 119t-71.5 74t-109 37t-147 11h-188z" />
<glyph unicode="Q" d="M92 594q0 196 51 362.5t147.5 290t246 193t337.5 69.5q144 0 253.5 -46.5t175.5 -129.5t98.5 -190.5t32.5 -237.5q0 -321 -118.5 -547t-338.5 -321q152 -197 389 -219l-39 -150q-148 6 -295.5 102.5t-220.5 217.5q-73 -13 -145 -13q-147 0 -258.5 46t-179.5 130t-102 195 t-34 248zM285 608q0 -105 26 -198q72 -277 373 -277q250 0 402.5 203.5t152.5 550.5q0 98 -27 194q-36 132 -126.5 201.5t-233.5 69.5q-255 0 -411 -200.5t-156 -543.5z" />
<glyph unicode="R" horiz-adv-x="1263" d="M104 0l203 1483h467q122 0 210 -28.5t136.5 -80t70 -112.5t21.5 -136q0 -176 -85 -286t-255 -172l265 -668h-201l-242 625h-323l-86 -625h-181zM391 772h227q402 0 402 348q0 118 -77 164.5t-226 46.5h-250z" />
<glyph unicode="S" horiz-adv-x="1159" d="M14 403l174 23q5 -52 15 -91.5t32.5 -80t56.5 -66.5t90 -42.5t130 -16.5q63 0 120.5 14t110 45.5t84 90.5t31.5 139q0 46 -16 83t-38.5 61t-63.5 46t-73.5 34.5t-86.5 29.5q-153 48 -207 74q-148 71 -188 200q-17 54 -17 121q0 203 146.5 322.5t381.5 119.5 q98 0 175.5 -23t137.5 -71.5t91 -131.5q28 -76 28 -176v-20l-176 -20q0 61 -10.5 108.5t-37.5 92t-81.5 68.5t-134.5 24q-164 0 -247 -76.5t-83 -196.5q0 -55 21 -95.5t71.5 -71t86 -45t113.5 -41.5q4 -2 6.5 -2.5t6.5 -2t7 -2.5q50 -17 78.5 -27t75 -30t73 -38t60 -48 t51.5 -62.5t30.5 -78.5t12.5 -99q0 -96 -30 -175t-81.5 -133t-122 -90.5t-150 -53.5t-167.5 -17q-229 0 -354 108t-132 320z" />
<glyph unicode="T" horiz-adv-x="1099" d="M119 1327l20 156h1051l-23 -156h-432l-180 -1327h-182l180 1327h-434z" />
<glyph unicode="U" horiz-adv-x="1419" d="M162 504l133 979h184l-131 -969q-7 -56 -8 -103q0 -125 52 -190q71 -90 245 -90q178 0 276 87.5t125 291.5l133 973h183l-133 -987q-72 -521 -594 -521q-275 -1 -388 133q-86 101 -86 277q0 56 9 119z" />
<glyph unicode="V" horiz-adv-x="1230" d="M127 1483h197l231 -1311h4l565 1311h195l-660 -1483h-251z" />
<glyph unicode="W" horiz-adv-x="1802" d="M162 1483h190l72 -1272h2l487 1272h209l144 -1288h2l409 1288h183l-504 -1483h-236l-137 1233h-2l-475 -1233h-232z" />
<glyph unicode="X" horiz-adv-x="1239" d="M-59 0l573 762l-346 721h205l276 -592l443 592h196l-549 -729l385 -754h-209l-311 612l-459 -612h-204z" />
<glyph unicode="Y" horiz-adv-x="1110" d="M98 1483h193l284 -733h3l469 733h194l-592 -903q-8 -55 -35.5 -261t-44.5 -319h-184l80 575z" />
<glyph unicode="Z" horiz-adv-x="1146" d="M-14 0l16 129l926 1200h-742l23 154h965l-21 -133l-917 -1196h788l-23 -154h-1015z" />
<glyph unicode="[" horiz-adv-x="557" d="M4 -293l250 1776h344l-18 -131h-168l-213 -1512h168l-17 -133h-346z" />
<glyph unicode="\" horiz-adv-x="776" d="M152 1546h167l332 -1734h-170z" />
<glyph unicode="]" horiz-adv-x="557" d="M-63 -293l18 131h168l213 1512h-168l16 133h346l-249 -1776h-344z" />
<glyph unicode="^" horiz-adv-x="1169" d="M82 612l403 748h191l409 -748h-184l-323 584l-318 -584h-178z" />
<glyph unicode="_" horiz-adv-x="1024" d="M-20 -231h1024v-140h-1024v140z" />
<glyph unicode="`" horiz-adv-x="1021" d="M473 1530h221l152 -334l-135 -25z" />
<glyph unicode="a" horiz-adv-x="1202" d="M86 383q0 106 19.5 205t60.5 187.5t100.5 154.5t145.5 104.5t188 38.5q84 0 161 -32t132 -80l16 92h172l-120 -854q-2 -17 -2 -30q1 -23 7 -37q10 -21 46 -21q29 0 65 10l-12 -113q-52 -20 -121 -20q-77 0 -115.5 35t-37.5 114q-67 -73 -165.5 -117.5t-199.5 -44.5 q-157 0 -248.5 100t-91.5 308zM274 399q0 -145 52.5 -209.5t150.5 -64.5q77 0 149.5 33.5t164.5 117.5l75 541q-44 42 -114 72.5t-142 30.5q-74 0 -133 -34t-96 -88t-62 -124.5t-35 -139t-10 -135.5z" />
<glyph unicode="b" horiz-adv-x="1198" d="M80 0l217 1546h182l-90 -631q95 74 185.5 116t195.5 42q149 0 234.5 -95.5t85.5 -303.5q0 -142 -27.5 -259.5t-75 -197.5t-111.5 -135.5t-136.5 -81t-151.5 -25.5q-179 0 -318 119h-2l-18 -94h-170zM299 238q119 -107 262 -107q73 0 131 29.5t95.5 79t63 118t36 143 t10.5 158.5q0 134 -45 197.5t-139 63.5q-81 0 -178 -49.5t-162 -106.5z" />
<glyph unicode="c" horiz-adv-x="1095" d="M82 420q0 154 42.5 278t118.5 206t181.5 125.5t230.5 43.5q184 -1 281 -115q81 -96 81 -238q0 -28 -3 -58l-170 -13q1 16 1 30q0 113 -41 175q-46 70 -169 70q-53 0 -101.5 -14.5t-96.5 -51t-83 -91t-56.5 -142t-21.5 -197.5q0 -159 67.5 -232t176.5 -73q220 0 287 223 l162 -31q-22 -87 -67 -153t-106.5 -106.5t-134.5 -60.5t-155 -20q-214 0 -319 119.5t-105 325.5z" />
<glyph unicode="d" horiz-adv-x="1181" d="M88 377q0 147 30 266.5t80 198.5t118 132t141 76t151 23q161 0 285 -108l80 581h184l-217 -1546h-162l10 121v2q-177 -148 -356 -148q-161 0 -252.5 99.5t-91.5 302.5zM276 387q0 -125 45.5 -190.5t143.5 -69.5q61 0 123 18q113 36 203 119l77 565q-113 97 -239 97 q-92 0 -162.5 -45.5t-110.5 -123.5t-60 -171t-20 -199z" />
<glyph unicode="e" horiz-adv-x="1058" d="M84 434q0 130 38 245t108.5 203t178 139.5t238.5 51.5q164 0 251 -76.5t87 -195.5q0 -125 -73.5 -206t-200.5 -120q-165 -52 -441 -63q1 -48 6.5 -85.5t21.5 -77.5t43 -66t73.5 -43t109.5 -17q107 0 174.5 54t94.5 142l153 -34q-44 -152 -165.5 -231t-284.5 -79 q-111 0 -193 36t-128.5 100.5t-68.5 144.5t-22 178zM279 553q217 9 360 53q168 54 168 187q0 68 -45.5 103.5t-126.5 35.5q-152 0 -243 -107t-113 -272z" />
<glyph unicode="f" horiz-adv-x="655" d="M51 -434l191 1349h-156l20 138h156l25 176q23 169 113.5 253.5t240.5 84.5q118 0 190 -37l-26 -137q-72 26 -146 26q-77 0 -124.5 -41t-61.5 -145l-24 -180h292l-20 -138h-293l-190 -1349h-187z" />
<glyph unicode="g" horiz-adv-x="1153" d="M4 -127l174 29q8 -100 62.5 -155.5t181.5 -55.5q59 0 108.5 13t93 41.5t73 78.5t40.5 119l35 211q-68 -68 -165.5 -107t-198.5 -39q-155 0 -244.5 98.5t-89.5 303.5q0 93 16.5 182.5t55.5 178t96 154.5t146.5 107t199.5 41q85 0 163.5 -33t131.5 -84l18 97h168 l-156 -1114q-28 -193 -153.5 -294.5t-335.5 -101.5q-391 0 -420 330zM262 424q0 -140 51.5 -202t147.5 -62q85 0 160.5 31t160.5 114l70 514q-40 43 -111 72t-145 29q-72 0 -131 -32t-96 -82.5t-62 -117.5t-35 -132.5t-10 -131.5z" />
<glyph unicode="h" horiz-adv-x="1191" d="M80 0l217 1546h184l-94 -639q79 67 179.5 116.5t209.5 49.5q160 0 232 -90q53 -67 53 -183q0 -41 -6 -87l-99 -713h-186l96 692q5 38 5 69q0 66 -24 103q-36 54 -124 54q-89 0 -170 -42t-180 -118l-107 -758h-186z" />
<glyph unicode="i" horiz-adv-x="505" d="M76 0l147 1053h187l-148 -1053h-186zM233 1368q0 72 40.5 112t111.5 40q55 0 85 -28t30 -81q0 -70 -40.5 -110.5t-111.5 -40.5q-55 0 -85 28.5t-30 79.5z" />
<glyph unicode="j" horiz-adv-x="505" d="M-293 -414l39 138q79 -31 148 -31q67 0 107.5 37.5t53.5 128.5l168 1194h187l-168 -1198q-25 -163 -105.5 -237.5t-226.5 -74.5q-52 0 -115.5 13t-87.5 30zM231 1368q0 71 41 111.5t111 40.5q56 0 86.5 -28.5t30.5 -80.5q0 -71 -41 -111t-113 -40q-55 0 -85 28.5 t-30 79.5z" />
<glyph unicode="k" horiz-adv-x="1069" d="M80 0l217 1546h186l-135 -954l508 461h221l-418 -381l297 -672h-204l-246 547l-187 -164l-53 -383h-186z" />
<glyph unicode="l" horiz-adv-x="505" d="M76 0l217 1546h186l-217 -1546h-186z" />
<glyph unicode="m" horiz-adv-x="1771" d="M80 0l147 1053h172l-22 -152h2q207 172 381 172q208 0 244 -166q200 166 382 166q165 0 219 -92q37 -63 37 -164q0 -47 -8 -102l-98 -715h-186l96 690q9 48 9 89q0 11 -1 22q-3 58 -33 86t-96 28q-130 0 -311 -147l-107 -768h-186l98 690q8 52 8 85q0 15 -2 26 q-2 59 -30.5 86.5t-94.5 27.5q-80 0 -170 -49t-157 -106l-107 -760h-186z" />
<glyph unicode="n" horiz-adv-x="1191" d="M80 0l147 1053h176l-22 -146h2q76 67 179.5 116.5t217.5 49.5q156 -1 228 -91q54 -68 53 -185q0 -39 -6 -84l-99 -713h-186l96 692q5 36 5 66q0 160 -146 160q-155 0 -352 -158l-107 -760h-186z" />
<glyph unicode="o" horiz-adv-x="1181" d="M82 403q0 77 8 134q33 246 180 391t392 145q110 0 191.5 -32.5t128.5 -92t69 -135t22 -168.5q0 -70 -8 -133q-31 -254 -174 -395.5t-385 -141.5q-215 0 -319.5 113t-104.5 315zM270 412q0 -295 252 -295q144 0 237.5 104t117.5 305q6 62 6 121q0 277 -244 277 q-147 0 -243 -101t-120 -297q-6 -56 -6 -114z" />
<glyph unicode="p" horiz-adv-x="1198" d="M18 -434l209 1487h176l-22 -144q203 164 389 164q150 0 236 -96t86 -303q0 -178 -43 -315.5t-116.5 -219.5t-164 -123t-193.5 -41q-173 0 -303 113l-73 -522h-181zM299 236q43 -39 110.5 -73t143.5 -34q95 0 164.5 45t107 123t55 167.5t17.5 194.5q0 139 -43 200t-137 61 q-82 0 -181 -49t-163 -105z" />
<glyph unicode="q" horiz-adv-x="1175" d="M88 371q0 150 30 270.5t79.5 200t117.5 132.5t141 76t152 23q168 0 289 -112l14 92h174l-208 -1487h-177l80 549q-173 -140 -352 -140q-160 0 -250 98.5t-90 297.5zM276 399q0 -134 47 -202t152 -68q84 0 169.5 40t146.5 97l77 568q-38 36 -101 64t-138 28 q-74 0 -134 -28.5t-100 -77.5t-67.5 -117t-39.5 -143.5t-12 -160.5z" />
<glyph unicode="r" horiz-adv-x="747" d="M80 0l147 1053h172l-22 -179q91 101 167.5 149t176.5 48q33 0 49 -2l-27 -184q-19 2 -37 2q-78 1 -150 -31q-90 -38 -187 -123l-103 -733h-186z" />
<glyph unicode="s" horiz-adv-x="995" d="M45 295l154 35q6 -48 19.5 -84t40.5 -67.5t74 -47.5t113 -16q62 0 111 13.5t86 53t37 101.5q0 32 -12 58t-29 43t-47.5 32t-56.5 23.5t-66 19.5q-129 36 -178 61q-131 66 -140 210q-1 12 -1 24q0 81 33.5 143.5t90.5 100t126.5 56.5t148.5 19q178 0 268 -88t98 -235 l-157 -23q-11 211 -213 211q-115 0 -167 -45.5t-52 -114.5q0 -68 49 -104t143 -64q132 -39 167 -53q133 -56 165 -162q12 -39 12 -86q0 -157 -116 -245.5t-310 -88.5q-363 0 -391 320z" />
<glyph unicode="t" horiz-adv-x="780" d="M84 915l18 138h164l43 303l189 26l-45 -329h288l-18 -138h-289l-88 -616q-5 -33 -5 -60q0 -48 15 -76q23 -44 111 -44q96 0 188 53l25 -131q-45 -27 -116.5 -46.5t-139.5 -19.5q-272 0 -272 232q0 34 6 72l90 636h-164z" />
<glyph unicode="u" horiz-adv-x="1187" d="M121 342l98 711h187l-97 -693q-6 -42 -6 -73q0 -24 4 -41q6 -60 42.5 -87.5t105.5 -27.5q87 0 177.5 43t162.5 107l106 772h186l-147 -1053h-168l19 139q-71 -64 -178 -111.5t-218 -47.5q-159 0 -229 91q-52 67 -52 182q0 42 7 89z" />
<glyph unicode="v" horiz-adv-x="1024" d="M80 1053h199l170 -875h2l413 875h191l-527 -1053h-211z" />
<glyph unicode="w" horiz-adv-x="1544" d="M80 1053h184l119 -865l348 865h199l108 -860l353 860h186l-459 -1053h-219l-100 840l-332 -840h-223z" />
<glyph unicode="x" horiz-adv-x="972" d="M-51 0l416 549l-271 504h193l202 -389l297 389h195l-406 -516l281 -537h-197l-210 412l-308 -412h-192z" />
<glyph unicode="y" horiz-adv-x="980" d="M-135 -420l33 135q73 -30 145 -30q73 0 126.5 64.5t133.5 242.5l-221 1061h194l152 -848l393 848h195l-555 -1119q-60 -120 -100.5 -186.5t-88.5 -117t-100 -69t-125 -18.5q-102 0 -182 37z" />
<glyph unicode="z" horiz-adv-x="931" d="M-16 0l18 123l676 788h-561l20 142h776l-18 -125l-670 -783h588l-22 -145h-807z" />
<glyph unicode="{" horiz-adv-x="624" d="M-4 528l20 131h35q125 0 168 121q12 40 18.5 103t12 160t8.5 139q18 177 89.5 252t244.5 75h98l-18 -139h-78q-68 0 -99.5 -29.5t-39.5 -93.5q-5 -48 -12.5 -157.5t-12.5 -157.5q-8 -73 -21 -126t-28 -87t-39 -58.5t-47 -37.5t-59 -27v-2q58 -24 89 -64.5t31 -123.5 q0 -80 -43 -247.5t-43 -219.5q0 -51 30 -76t97 -25h56l-19 -135h-108q-240 0 -250 182q-2 19 2 60q6 64 46 221t40 225q0 137 -129 137h-39z" />
<glyph unicode="|" horiz-adv-x="573" d="M76 -293l258 1839h168l-258 -1839h-168z" />
<glyph unicode="}" horiz-adv-x="626" d="M-92 -297l18 139h78q68 0 99.5 29.5t39.5 93.5q5 48 12.5 158t12.5 158q10 91 26 150.5t42.5 95.5t53.5 54t72 35v2q-58 24 -89 65t-31 124q0 80 43 247.5t43 219.5q0 51 -30 75.5t-97 24.5h-56l19 135h108q240 0 250 -182q2 -18 -2 -59q-6 -63 -46 -221t-40 -226 q0 -137 129 -137h39l-20 -131h-35q-125 0 -168 -121q-12 -40 -18.5 -103t-12 -159.5t-8.5 -138.5q-18 -177 -89.5 -252.5t-244.5 -75.5h-98z" />
<glyph unicode="~" horiz-adv-x="1058" d="M143 602q-14 123 38 188.5t141 65.5q69 0 255.5 -47t227.5 -47t58.5 21t17.5 85l118 -6q14 -121 -36.5 -184.5t-141.5 -63.5q-68 0 -256 47.5t-231 47.5q-80 0 -72 -111z" />
<glyph unicode="&#xa1;" horiz-adv-x="544" d="M47 -434l186 1100h140l-119 -1100h-207zM203 922q0 73 40 112t115 39q123 0 123 -106q0 -74 -41 -114t-116 -40q-121 0 -121 109z" />
<glyph unicode="&#xa2;" horiz-adv-x="1056" d="M98 635q0 258 126.5 414t332.5 182l29 201h147l-28 -203q139 -20 213.5 -121t62.5 -248l-168 -10q7 200 -135 235l-105 -720q81 13 130.5 62.5t76.5 139.5l154 -30q-35 -139 -136.5 -218.5t-242.5 -97.5l-29 -221h-147l31 225q-159 23 -235.5 129.5t-76.5 280.5zM285 639 q0 -225 147 -268l103 712q-111 -26 -180.5 -134t-69.5 -310z" />
<glyph unicode="&#xa3;" horiz-adv-x="1148" d="M-41 0l21 152h110q114 90 167.5 177.5t53.5 186.5q0 70 -26 146h-211l20 145h158q-55 127 -55 260q0 196 143 319t365 123q203 0 303 -96t96 -297l-170 -14q0 132 -50 197t-182 65q-142 0 -229.5 -75t-87.5 -226q0 -117 55 -256h461l-20 -145h-410q16 -55 16 -132 q0 -211 -200 -378h352q117 0 174.5 50t93.5 175l162 -31q-44 -182 -150.5 -264t-289.5 -82h-670z" />
<glyph unicode="&#xa4;" horiz-adv-x="1167" d="M-84 127l199 192q-58 96 -58 244q0 138 72 254l-184 189l127 120l176 -182q121 90 282 90q166 0 277 -84l178 174l107 -116l-185 -181q58 -103 58 -229q0 -155 -82 -279l186 -190l-127 -119l-182 185q-115 -78 -271 -78q-165 0 -274 82q-167 -168 -190 -189zM240 569 q0 -134 67 -217.5t201 -83.5q129 0 200.5 89.5t71.5 226.5q0 140 -68 217.5t-200 77.5q-130 0 -201 -86t-71 -224z" />
<glyph unicode="&#xa5;" horiz-adv-x="1085" d="M127 410l25 141h262l24 180h-270l22 137h195l-258 615h197l231 -604h2l373 604h200l-407 -615h199l-23 -137h-268l-2 -4l-25 -176h279l-21 -141h-278l-58 -410h-188l55 410h-266z" />
<glyph unicode="&#xa6;" horiz-adv-x="573" d="M76 -293l112 795h168l-112 -795h-168zM236 844l98 702h168l-99 -702h-167z" />
<glyph unicode="&#xa7;" horiz-adv-x="1138" d="M18 -70l177 23q0 -56 11.5 -99t38 -78.5t74 -54t115.5 -18.5q120 0 193 66.5t73 169.5q0 54 -26.5 94.5t-70 63t-99.5 43t-114 35.5t-114 40.5t-99.5 56.5t-70 85t-26.5 126q0 98 57.5 175t188.5 167q-101 81 -101 226q0 97 39 174.5t106 126t152 74.5t180 26 q196 0 298 -96t90 -273l-177 -22q6 127 -45 189.5t-172 62.5q-132 0 -205 -66.5t-73 -169.5q0 -62 34 -105.5t88 -68t119.5 -44.5t131 -42.5t119.5 -53t88 -85.5t34 -131q0 -105 -62 -190.5t-184 -168.5q43 -38 72 -94t29 -119q0 -196 -127.5 -304.5t-329.5 -108.5 q-198 0 -305.5 95.5t-106.5 272.5zM260 514q0 -39 18.5 -70t46.5 -50t72 -36.5t84.5 -29t94.5 -28t92 -32.5q182 105 182 242q0 44 -24.5 76t-70.5 53t-93.5 36t-113.5 34.5t-110 38.5q-178 -116 -178 -234z" />
<glyph unicode="&#xa8;" horiz-adv-x="1021" d="M377 1370q0 63 41.5 101t107.5 38q51 0 81 -28.5t30 -75.5q0 -64 -40.5 -101.5t-104.5 -37.5q-54 0 -84.5 27.5t-30.5 76.5zM805 1370q0 63 41.5 101t107.5 38q52 0 81.5 -28t29.5 -76q0 -63 -40 -101t-103 -38q-54 0 -85.5 27.5t-31.5 76.5z" />
<glyph unicode="&#xa9;" horiz-adv-x="1579" d="M94 637q0 157 54 287.5t148 217t220 134t270 47.5q318 0 502.5 -178t184.5 -479q0 -310 -191.5 -500.5t-499.5 -190.5q-167 0 -299 50.5t-216.5 140t-128.5 209.5t-44 262zM219 639q0 -260 151 -407.5t416 -147.5q263 0 414.5 152.5t151.5 416.5q0 179 -73 308 t-199.5 192.5t-293.5 63.5q-163 0 -290.5 -67.5t-202 -200t-74.5 -310.5zM424 655q0 178 98 288t275 110q128 0 211 -63.5t90 -198.5l-121 -17q-8 89 -51.5 131.5t-130.5 42.5q-104 0 -169 -72t-65 -225q0 -129 56.5 -210t170.5 -81q95 0 141 43t66 134l113 -19 q-10 -76 -43 -130t-80 -81.5t-93.5 -39t-96.5 -11.5q-189 0 -280 108.5t-91 290.5z" />
<glyph unicode="&#xaa;" horiz-adv-x="835" d="M104 825q0 125 40 225.5t120 161t187 60.5q106 0 190 -72l10 60h144l-80 -541q-3 -30 3.5 -42.5t29.5 -12.5q21 0 45 8l-11 -88q-34 -17 -96 -17q-112 0 -115 92q-44 -45 -105.5 -71.5t-129.5 -26.5q-108 0 -170 65t-62 199zM262 842q0 -164 127 -164q92 0 180 88l49 330 q-24 24 -65 40.5t-84 16.5q-56 0 -98.5 -30t-65 -78.5t-33 -99.5t-10.5 -103z" />
<glyph unicode="&#xab;" horiz-adv-x="899" d="M106 530l226 306h168l-215 -299l123 -326h-168zM434 530l225 306h168l-215 -299l123 -326h-168z" />
<glyph unicode="&#xac;" horiz-adv-x="1167" d="M188 584l7 166h772l-13 -359h-166l7 193h-607z" />
<glyph unicode="&#xad;" horiz-adv-x="636" d="M27 518l24 170h555l-24 -170h-555z" />
<glyph unicode="&#xae;" horiz-adv-x="923" d="M115 965q0 174 110 278.5t273 104.5q174 0 276.5 -100.5t102.5 -268.5q0 -169 -106 -274t-275 -105q-182 0 -281.5 102t-99.5 263zM203 967q0 -133 79 -210t216 -77q135 0 214 79t79 214q0 141 -81.5 218t-211.5 77q-128 0 -211.5 -81t-83.5 -220zM371 784v392h139 q135 0 135 -111q0 -75 -70 -102l105 -179h-86l-90 154h-51v-154h-82zM453 999h26q40 0 62 13.5t22 48.5q0 30 -18 41.5t-53 11.5h-39v-115z" />
<glyph unicode="&#xaf;" horiz-adv-x="1024" d="M414 1284l20 141h596l-20 -141h-596z" />
<glyph unicode="&#xb0;" horiz-adv-x="641" d="M137 1292q0 112 69 176t171 64q98 0 159.5 -58t61.5 -161q0 -108 -65 -172t-171 -64q-103 0 -164 58t-61 157zM256 1296q0 -53 28.5 -82.5t82.5 -29.5q53 0 81.5 32.5t30.5 90.5q1 57 -27 87.5t-79 30.5q-53 0 -85 -34t-32 -95z" />
<glyph unicode="&#xb1;" horiz-adv-x="1165" d="M84 0l22 164h773l-23 -164h-772zM164 575l24 166h301l41 308h172l-43 -308h302l-25 -166h-301l-41 -299h-172l43 299h-301z" />
<glyph unicode="&#xb2;" horiz-adv-x="737" d="M70 715l20 135l248 242q147 144 191 203t44 124q0 50 -27 73.5t-83 23.5q-61 0 -101 -35t-63 -109l-145 25q18 84 69 140.5t118 80.5t148 24q122 0 188 -54t66 -154q0 -52 -13 -94.5t-48 -90t-77 -90.5t-118 -112l-200 -191l2 -2h385l-21 -139h-583z" />
<glyph unicode="&#xb3;" horiz-adv-x="776" d="M90 924l150 26q3 -58 33.5 -92.5t103.5 -34.5q72 0 122 44.5t50 131.5q0 129 -154 129h-88l17 119h61q97 0 154 48t57 126q0 44 -26.5 71.5t-82.5 27.5q-66 0 -102 -30t-59 -93l-146 26q69 219 330 219q120 0 187 -51.5t67 -144.5q0 -95 -63.5 -157t-151.5 -85v-4 q170 -33 170 -194q0 -140 -93 -223t-253 -83q-126 0 -201 54t-82 170z" />
<glyph unicode="&#xb4;" horiz-adv-x="1024" d="M551 1196l237 334h232l-338 -359z" />
<glyph unicode="&#xb5;" horiz-adv-x="1286" d="M61 -360l201 1413h187l-99 -686q-6 -47 -6 -84q0 -71 34 -113.5t107 -42.5q89 0 180.5 52.5t168.5 125.5l104 748h186l-147 -1053h-186l18 127q-45 -35 -91 -64t-104 -54t-110 -33t-106 6t-95 55l-10 -6l-41 -391h-191z" />
<glyph unicode="&#xb6;" horiz-adv-x="1167" d="M115 905q0 123 34.5 221t93.5 164t141.5 110t175 63.5t198.5 19.5h346l-244 -1755h-160l230 1620h-170l-228 -1620h-159l110 782q-176 15 -272 119.5t-96 275.5z" />
<glyph unicode="&#xb7;" horiz-adv-x="397" d="M63 600q0 73 40.5 112.5t115.5 39.5q119 0 119 -107q0 -73 -40.5 -112t-115.5 -39q-119 0 -119 106z" />
<glyph unicode="&#xb8;" horiz-adv-x="1021" d="M223 -428l37 102q61 -32 111 -32q53 0 83.5 28t30.5 70q0 47 -32 67.5t-105 22.5l64 231l114 -16l-39 -135q59 -12 99.5 -52t40.5 -108q0 -103 -69 -161t-175 -58q-99 0 -160 41z" />
<glyph unicode="&#xb9;" horiz-adv-x="622" d="M176 1384v134q185 12 295 106h109l-134 -909h-165l104 708q-34 -16 -102.5 -27.5t-106.5 -11.5z" />
<glyph unicode="&#xba;" horiz-adv-x="813" d="M102 856q0 84 26 158.5t74.5 132.5t125.5 91.5t172 33.5q146 0 215 -79t69 -216q0 -83 -24 -156t-70.5 -132t-123 -93.5t-173.5 -34.5q-291 0 -291 295zM258 844q0 -168 150 -168q187 0 215 239q4 58 4 80q0 164 -146 164q-89 0 -147 -59t-72 -180q-4 -25 -4 -76z" />
<glyph unicode="&#xbb;" horiz-adv-x="897" d="M41 211l223 313l-131 312h166l135 -316l-223 -309h-170zM369 211l223 313l-131 312h166l135 -316l-223 -309h-170z" />
<glyph unicode="&#xbc;" horiz-adv-x="1843" d="M143 1245v133q184 12 295 107h109l-133 -910h-166l104 709q-34 -16 -102.5 -27.5t-106.5 -11.5zM299 -25l942 1508h172l-938 -1508h-176zM975 211l16 115l469 585h209l-84 -567h109l-19 -133h-108l-31 -211h-164l33 211h-430zM1145 344h278l66 424z" />
<glyph unicode="&#xbd;" horiz-adv-x="1843" d="M162 1245v133q184 12 295 107h108l-133 -910h-166l105 709q-34 -16 -102.5 -27.5t-106.5 -11.5zM281 -25l942 1508h172l-938 -1508h-176zM1010 0l20 135l248 242q146 143 190.5 203t44.5 125q0 50 -27 73t-83 23q-61 0 -101 -35t-63 -109l-145 25q18 84 69 140.5 t118.5 81t148.5 24.5q121 0 187 -54.5t66 -154.5q0 -52 -13 -94.5t-48 -90t-77 -90.5t-118 -112l-200 -191l2 -2h385l-21 -139h-583z" />
<glyph unicode="&#xbe;" horiz-adv-x="1843" d="M29 784l149 27q3 -58 33.5 -92.5t103.5 -34.5q72 0 122 44.5t50 131.5q0 129 -153 129h-88l16 119h62q97 0 154 48t57 126q0 43 -26.5 70.5t-82.5 27.5q-66 0 -102.5 -30.5t-59.5 -92.5l-145 27q69 219 330 219q120 0 186.5 -51t66.5 -145q0 -95 -63.5 -157t-151.5 -85 v-4q170 -33 170 -195q0 -140 -92.5 -222.5t-253.5 -82.5q-268 0 -282 223zM375 -25l942 1508h172l-938 -1508h-176zM1006 211l16 115l469 585h209l-84 -567h108l-18 -133h-109l-30 -211h-164l33 211h-430zM1176 344h278l66 424z" />
<glyph unicode="&#xbf;" horiz-adv-x="987" d="M-27 -86q0 118 38 208.5t109.5 150t161.5 96t207 55.5l33 244h180l-51 -367q-68 -6 -122 -14.5t-112.5 -25t-101 -43.5t-78 -64.5t-53.5 -93.5t-18 -126q0 -113 62.5 -168t168.5 -55q71 0 125.5 19t103 73.5t74.5 145.5l168 -31q-42 -162 -163 -260t-334 -98 q-82 0 -151.5 20t-126 61t-88.5 111t-32 162zM516 922q0 73 40.5 112t115.5 39q123 0 123 -106q0 -74 -41 -114t-117 -40q-121 0 -121 109z" />
<glyph unicode="&#xc0;" horiz-adv-x="1318" d="M-35 0l684 1483h242l297 -1483h-197l-84 451h-547l-202 -451h-193zM424 602h459l-131 719h-2zM492 1870h219l163 -275l-139 -24z" />
<glyph unicode="&#xc1;" horiz-adv-x="1318" d="M-35 0l684 1483h242l297 -1483h-197l-84 451h-547l-202 -451h-193zM424 602h459l-131 719h-2zM670 1595l233 275h234l-328 -299z" />
<glyph unicode="&#xc2;" horiz-adv-x="1318" d="M-35 0l684 1483h242l297 -1483h-197l-84 451h-547l-202 -451h-193zM424 602h459l-131 719h-2zM467 1589l274 262h162l199 -262l-146 -14l-151 162l-195 -166z" />
<glyph unicode="&#xc3;" horiz-adv-x="1318" d="M-35 0l684 1483h242l297 -1483h-197l-84 451h-547l-202 -451h-193zM424 602h459l-131 719h-2zM461 1595q7 120 67.5 184t141.5 64q43 0 85 -14.5t69 -32.5t61.5 -32.5t64.5 -14.5q38 0 60 24t32 82l113 -6q-7 -119 -66 -180t-143 -61q-54 0 -105 23.5t-96 47t-83 23.5 q-37 0 -59 -25.5t-28 -85.5z" />
<glyph unicode="&#xc4;" horiz-adv-x="1318" d="M-35 0l684 1483h242l297 -1483h-197l-84 451h-547l-202 -451h-193zM424 602h459l-131 719h-2zM453 1702q0 64 41 102.5t108 38.5q51 0 81 -28.5t30 -77.5q0 -64 -41 -102t-105 -38q-54 0 -84 27.5t-30 77.5zM881 1702q0 64 41 102.5t108 38.5q52 0 81.5 -28t29.5 -78 q0 -63 -40.5 -101.5t-103.5 -38.5q-54 0 -85 28t-31 77z" />
<glyph unicode="&#xc5;" horiz-adv-x="1318" d="M-35 0l680 1475q-74 46 -74 145q0 115 75.5 180.5t180.5 65.5q89 0 144 -44.5t55 -131.5q0 -77 -35.5 -134.5t-97.5 -87.5l295 -1468h-197l-84 451h-547l-202 -451h-193zM424 602h459l-131 719h-2zM688 1634q0 -40 24.5 -63t69.5 -23q59 0 91 35.5t32 93.5q0 84 -92 84 q-55 0 -90 -32.5t-35 -94.5z" />
<glyph unicode="&#xc6;" horiz-adv-x="1992" d="M-37 0l1014 1483h1020l-21 -154h-655l-72 -518h613l-23 -154h-612l-70 -503h680l-22 -154h-865l90 653h-434l-444 -653h-199zM694 805h369l74 524h-82z" />
<glyph unicode="&#xc7;" horiz-adv-x="1374" d="M96 573q0 216 57 392t159 295.5t245.5 184t314.5 64.5q236 0 366.5 -135t117.5 -381l-174 -16q3 184 -72.5 280.5t-249.5 96.5q-258 0 -414.5 -200t-156.5 -562q0 -465 387 -465q165 0 264.5 77.5t157.5 239.5l166 -32q-26 -89 -68.5 -160t-95.5 -119.5t-118.5 -82.5 t-134 -51t-145.5 -22l-18 -67q59 -12 99 -52t40 -108q0 -103 -68.5 -161t-174.5 -58q-96 0 -162 41l39 102q53 -32 110 -32q52 0 82.5 28.5t30.5 69.5q0 47 -32 67.5t-105 22.5l41 147q-167 12 -278 91.5t-160.5 206t-49.5 298.5z" />
<glyph unicode="&#xc8;" horiz-adv-x="1140" d="M104 0l203 1483h838l-19 -154h-657l-68 -506h615l-23 -153h-614l-70 -516h682l-22 -154h-865zM510 1870h219l164 -275l-139 -24z" />
<glyph unicode="&#xc9;" horiz-adv-x="1140" d="M104 0l203 1483h838l-19 -154h-657l-68 -506h615l-23 -153h-614l-70 -516h682l-22 -154h-865zM580 1595l233 275h234l-328 -299z" />
<glyph unicode="&#xca;" horiz-adv-x="1140" d="M104 0l203 1483h838l-19 -154h-657l-68 -506h615l-23 -153h-614l-70 -516h682l-22 -154h-865zM424 1589l274 262h162l199 -262l-146 -14l-151 162l-195 -166z" />
<glyph unicode="&#xcb;" horiz-adv-x="1140" d="M104 0l203 1483h838l-19 -154h-657l-68 -506h615l-23 -153h-614l-70 -516h682l-22 -154h-865zM410 1702q0 64 41 102.5t108 38.5q51 0 81 -28.5t30 -77.5q0 -64 -41 -102t-105 -38q-54 0 -84 27.5t-30 77.5zM838 1702q0 64 41 102.5t108 38.5q52 0 81.5 -28t29.5 -78 q0 -63 -40.5 -101.5t-103.5 -38.5q-54 0 -85 28t-31 77z" />
<glyph unicode="&#xcc;" horiz-adv-x="561" d="M104 0l203 1483h182l-202 -1483h-183zM178 1870h219l164 -275l-139 -24z" />
<glyph unicode="&#xcd;" horiz-adv-x="561" d="M104 0l203 1483h182l-202 -1483h-183zM248 1595l233 275h234l-328 -299z" />
<glyph unicode="&#xce;" horiz-adv-x="561" d="M92 1589l275 262h161l199 -262l-145 -14l-152 162l-194 -166zM104 0l203 1483h182l-202 -1483h-183z" />
<glyph unicode="&#xcf;" horiz-adv-x="561" d="M78 1702q0 64 41 102.5t108 38.5q51 0 81 -28.5t30 -77.5q0 -64 -40.5 -102t-104.5 -38q-54 0 -84.5 28t-30.5 77zM104 0l203 1483h182l-202 -1483h-183zM506 1702q0 64 41 102.5t108 38.5q52 0 81.5 -28t29.5 -78q0 -63 -40 -101.5t-103 -38.5q-54 0 -85.5 28t-31.5 77z " />
<glyph unicode="&#xd0;" horiz-adv-x="1468" d="M80 678l22 147h142l90 658h440q318 0 471.5 -156t153.5 -438q0 -155 -32 -288.5t-100 -244.5t-168 -190t-242.5 -122.5t-317.5 -43.5h-408l92 678h-143zM336 152h221q313 0 482 190t169 547q0 238 -118.5 340t-350.5 102h-241l-70 -506h442l-22 -147h-440z" />
<glyph unicode="&#xd1;" horiz-adv-x="1474" d="M104 0l203 1483h242l514 -1245l172 1245h168l-203 -1483h-221l-530 1257l-175 -1257h-170zM553 1595q7 120 67.5 184t141.5 64q43 0 85 -14.5t69 -32.5t61.5 -32.5t64.5 -14.5q38 0 60.5 24t32.5 82l112 -6q-7 -119 -66 -180t-143 -61q-54 0 -105 23.5t-96 47t-83 23.5 q-37 0 -58.5 -25.5t-27.5 -85.5z" />
<glyph unicode="&#xd2;" d="M96 594q0 157 32 295t96.5 252t157 196t219.5 127t278 45q144 0 253.5 -46.5t175 -129.5t98 -190.5t32.5 -237.5q0 -280 -90 -489.5t-264.5 -325t-413.5 -115.5q-147 0 -258.5 46t-179.5 130t-102 195t-34 248zM289 608q0 -100 24 -198q75 -277 375 -277 q250 0 401.5 203.5t151.5 550.5q0 109 -24 194q-37 132 -128.5 201.5t-232.5 69.5q-255 0 -411 -200.5t-156 -543.5zM657 1870h220l163 -275l-139 -24z" />
<glyph unicode="&#xd3;" d="M96 594q0 157 32 295t96.5 252t157 196t219.5 127t278 45q144 0 253.5 -46.5t175 -129.5t98 -190.5t32.5 -237.5q0 -280 -90 -489.5t-264.5 -325t-413.5 -115.5q-147 0 -258.5 46t-179.5 130t-102 195t-34 248zM289 608q0 -100 24 -198q75 -277 375 -277 q250 0 401.5 203.5t151.5 550.5q0 109 -24 194q-37 132 -128.5 201.5t-232.5 69.5q-255 0 -411 -200.5t-156 -543.5zM727 1595l234 275h233l-328 -299z" />
<glyph unicode="&#xd4;" d="M96 594q0 157 32 295t96.5 252t157 196t219.5 127t278 45q144 0 253.5 -46.5t175 -129.5t98 -190.5t32.5 -237.5q0 -280 -90 -489.5t-264.5 -325t-413.5 -115.5q-147 0 -258.5 46t-179.5 130t-102 195t-34 248zM289 608q0 -100 24 -198q75 -277 375 -277 q250 0 401.5 203.5t151.5 550.5q0 109 -24 194q-37 132 -128.5 201.5t-232.5 69.5q-255 0 -411 -200.5t-156 -543.5zM571 1589l275 262h162l198 -262l-145 -14l-152 162l-194 -166z" />
<glyph unicode="&#xd5;" d="M96 594q0 157 32 295t96.5 252t157 196t219.5 127t278 45q144 0 253.5 -46.5t175 -129.5t98 -190.5t32.5 -237.5q0 -280 -90 -489.5t-264.5 -325t-413.5 -115.5q-147 0 -258.5 46t-179.5 130t-102 195t-34 248zM289 608q0 -100 24 -198q75 -277 375 -277 q250 0 401.5 203.5t151.5 550.5q0 109 -24 194q-37 132 -128.5 201.5t-232.5 69.5q-255 0 -411 -200.5t-156 -543.5zM565 1595q7 120 67.5 184t141.5 64q55 0 105.5 -23.5t94.5 -47t81 -23.5q38 0 60 24t32 82l113 -6q-7 -119 -66 -180t-143 -61q-43 0 -85 14.5t-70 32.5 t-63.5 32.5t-66.5 14.5q-37 0 -58.5 -25.5t-27.5 -85.5z" />
<glyph unicode="&#xd6;" d="M96 594q0 157 32 295t96.5 252t157 196t219.5 127t278 45q144 0 253.5 -46.5t175 -129.5t98 -190.5t32.5 -237.5q0 -280 -90 -489.5t-264.5 -325t-413.5 -115.5q-147 0 -258.5 46t-179.5 130t-102 195t-34 248zM289 608q0 -100 24 -198q75 -277 375 -277 q250 0 401.5 203.5t151.5 550.5q0 109 -24 194q-37 132 -128.5 201.5t-232.5 69.5q-255 0 -411 -200.5t-156 -543.5zM557 1702q0 64 41.5 102.5t108.5 38.5q51 0 80.5 -28.5t29.5 -77.5q0 -64 -40.5 -102t-104.5 -38q-54 0 -84.5 28t-30.5 77zM985 1702q0 64 41.5 102.5 t108.5 38.5q52 0 81 -28t29 -78q0 -63 -40 -101.5t-103 -38.5q-54 0 -85.5 28t-31.5 77z" />
<glyph unicode="&#xd7;" horiz-adv-x="1167" d="M188 438l246 217l-184 219l137 121l182 -217l248 217l103 -121l-248 -219l186 -217l-137 -119l-184 218l-246 -218z" />
<glyph unicode="&#xd8;" d="M96 594q0 157 32 295t96.5 252t157 196t219.5 127t278 45q54 0 116 -10l49 117h179l-68 -164q143 -68 213 -212t70 -335q0 -280 -90 -489.5t-264.5 -325t-413.5 -115.5q-56 0 -127 11l-60 -146h-178l80 193q-146 68 -217.5 214t-71.5 347zM289 608q0 -100 24 -198 q39 -146 140 -213l479 1149q-38 6 -76 6q-255 0 -411 -200.5t-156 -543.5zM608 137q25 -4 80 -4q250 0 401.5 203.5t151.5 550.5q0 109 -24 194q-42 137 -132 203z" />
<glyph unicode="&#xd9;" horiz-adv-x="1419" d="M162 504l133 979h184l-131 -969q-27 -203 44 -293t245 -90q178 0 276 87.5t125 291.5l133 973h183l-133 -987q-72 -521 -594 -521q-275 0 -388 133.5t-77 395.5zM608 1870h219l164 -275l-139 -24z" />
<glyph unicode="&#xda;" horiz-adv-x="1419" d="M162 504l133 979h184l-131 -969q-27 -203 44 -293t245 -90q178 0 276 87.5t125 291.5l133 973h183l-133 -987q-72 -521 -594 -521q-275 0 -388 133.5t-77 395.5zM678 1595l233 275h234l-328 -299z" />
<glyph unicode="&#xdb;" horiz-adv-x="1419" d="M162 504l133 979h184l-131 -969q-27 -203 44 -293t245 -90q178 0 276 87.5t125 291.5l133 973h183l-133 -987q-72 -521 -594 -521q-275 0 -388 133.5t-77 395.5zM522 1589l275 262h161l199 -262l-145 -14l-152 162l-194 -166z" />
<glyph unicode="&#xdc;" horiz-adv-x="1419" d="M162 504l133 979h184l-131 -969q-27 -203 44 -293t245 -90q178 0 276 87.5t125 291.5l133 973h183l-133 -987q-72 -521 -594 -521q-275 0 -388 133.5t-77 395.5zM508 1702q0 64 41 102.5t108 38.5q51 0 81 -28.5t30 -77.5q0 -64 -40.5 -102t-104.5 -38q-54 0 -84.5 28 t-30.5 77zM936 1702q0 64 41 102.5t108 38.5q52 0 81.5 -28t29.5 -78q0 -63 -40 -101.5t-103 -38.5q-54 0 -85.5 28t-31.5 77z" />
<glyph unicode="&#xdd;" horiz-adv-x="1110" d="M98 1483h193l284 -733h3l469 733h194l-592 -903q-8 -55 -35.5 -261t-44.5 -319h-184l80 575zM524 1595l234 275h233l-327 -299z" />
<glyph unicode="&#xde;" horiz-adv-x="1343" d="M248 0l209 1483h184l-33 -246h250q129 0 224 -29t150 -82.5t81 -122t26 -153.5q0 -267 -159.5 -399t-462.5 -132h-238l-45 -319h-186zM502 475h207q79 0 138.5 8t117 31.5t94.5 62.5t59.5 104.5t22.5 154.5q0 129 -85 188t-249 59h-219z" />
<glyph unicode="&#xdf;" horiz-adv-x="1353" d="M20 -434l213 1538q65 467 551 467q199 0 307.5 -89t108.5 -241q0 -283 -289 -393v-6q320 -56 320 -371q0 -223 -124.5 -358.5t-342.5 -135.5q-338 0 -373 299l162 39q17 -89 63 -139.5t144 -50.5q124 0 204 90.5t80 251.5q0 79 -26.5 136.5t-75.5 89.5t-108.5 46.5 t-133.5 14.5h-82l21 143h31q88 0 155.5 27.5t106 73.5t57.5 100t19 114q0 211 -236 211q-75 0 -130 -14.5t-102 -50.5t-76.5 -101.5t-43.5 -162.5l-213 -1528h-187z" />
<glyph unicode="&#xe0;" horiz-adv-x="1202" d="M86 383q0 106 19.5 205t60.5 187.5t100.5 154.5t145.5 104.5t188 38.5q84 0 161 -32t132 -80l16 92h172l-120 -854q-6 -46 4.5 -67t46.5 -21q29 0 65 10l-12 -113q-52 -20 -121 -20q-77 0 -115.5 35t-37.5 114q-67 -73 -165.5 -117.5t-199.5 -44.5q-157 0 -248.5 100 t-91.5 308zM274 399q0 -145 52.5 -209.5t150.5 -64.5q77 0 149.5 33.5t164.5 117.5l75 541q-44 42 -114 72.5t-142 30.5q-74 0 -133 -34t-96 -88t-62 -124.5t-35 -139t-10 -135.5zM451 1530h221l151 -334l-135 -25z" />
<glyph unicode="&#xe1;" horiz-adv-x="1202" d="M86 383q0 106 19.5 205t60.5 187.5t100.5 154.5t145.5 104.5t188 38.5q84 0 161 -32t132 -80l16 92h172l-120 -854q-6 -46 4.5 -67t46.5 -21q29 0 65 10l-12 -113q-52 -20 -121 -20q-77 0 -115.5 35t-37.5 114q-67 -73 -165.5 -117.5t-199.5 -44.5q-157 0 -248.5 100 t-91.5 308zM274 399q0 -145 52.5 -209.5t150.5 -64.5q77 0 149.5 33.5t164.5 117.5l75 541q-44 42 -114 72.5t-142 30.5q-74 0 -133 -34t-96 -88t-62 -124.5t-35 -139t-10 -135.5zM528 1196l238 334h231l-338 -359z" />
<glyph unicode="&#xe2;" horiz-adv-x="1202" d="M86 383q0 106 19.5 205t60.5 187.5t100.5 154.5t145.5 104.5t188 38.5q84 0 161 -32t132 -80l16 92h172l-120 -854q-6 -46 4.5 -67t46.5 -21q29 0 65 10l-12 -113q-52 -20 -121 -20q-77 0 -115.5 35t-37.5 114q-67 -73 -165.5 -117.5t-199.5 -44.5q-157 0 -248.5 100 t-91.5 308zM274 399q0 -145 52.5 -209.5t150.5 -64.5q77 0 149.5 33.5t164.5 117.5l75 541q-44 42 -114 72.5t-142 30.5q-74 0 -133 -34t-96 -88t-62 -124.5t-35 -139t-10 -135.5zM352 1194l279 338h182l184 -338l-139 -12l-149 235l-211 -237z" />
<glyph unicode="&#xe3;" horiz-adv-x="1202" d="M86 383q0 106 19.5 205t60.5 187.5t100.5 154.5t145.5 104.5t188 38.5q84 0 161 -32t132 -80l16 92h172l-120 -854q-6 -46 4.5 -67t46.5 -21q29 0 65 10l-12 -113q-52 -20 -121 -20q-77 0 -115.5 35t-37.5 114q-67 -73 -165.5 -117.5t-199.5 -44.5q-157 0 -248.5 100 t-91.5 308zM274 399q0 -145 52.5 -209.5t150.5 -64.5q77 0 149.5 33.5t164.5 117.5l75 541q-44 42 -114 72.5t-142 30.5q-74 0 -133 -34t-96 -88t-62 -124.5t-35 -139t-10 -135.5zM342 1217q11 122 69.5 183.5t141.5 61.5q43 0 84.5 -14.5t68.5 -32.5t61 -32.5t64 -14.5 q40 0 62 25t31 82l112 -5q-12 -122 -66 -181.5t-141 -59.5q-55 0 -106.5 23.5t-96 47t-81.5 23.5t-59 -25.5t-29 -87.5z" />
<glyph unicode="&#xe4;" horiz-adv-x="1202" d="M86 383q0 106 19.5 205t60.5 187.5t100.5 154.5t145.5 104.5t188 38.5q84 0 161 -32t132 -80l16 92h172l-120 -854q-6 -46 4.5 -67t46.5 -21q29 0 65 10l-12 -113q-52 -20 -121 -20q-77 0 -115.5 35t-37.5 114q-67 -73 -165.5 -117.5t-199.5 -44.5q-157 0 -248.5 100 t-91.5 308zM274 399q0 -145 52.5 -209.5t150.5 -64.5q77 0 149.5 33.5t164.5 117.5l75 541q-44 42 -114 72.5t-142 30.5q-74 0 -133 -34t-96 -88t-62 -124.5t-35 -139t-10 -135.5zM375 1370q0 63 41.5 101t107.5 38q51 0 81 -28.5t30 -75.5q0 -63 -41 -101t-105 -38 q-54 0 -84 27.5t-30 76.5zM803 1370q0 63 41.5 101t107.5 38q52 0 81.5 -28t29.5 -76q0 -63 -40 -101t-103 -38q-54 0 -85.5 27.5t-31.5 76.5z" />
<glyph unicode="&#xe5;" horiz-adv-x="1202" d="M86 383q0 106 19.5 205t60.5 187.5t100.5 154.5t145.5 104.5t188 38.5q84 0 161 -32t132 -80l16 92h172l-120 -854q-6 -46 4.5 -67t46.5 -21q29 0 65 10l-12 -113q-52 -20 -121 -20q-77 0 -115.5 35t-37.5 114q-67 -73 -165.5 -117.5t-199.5 -44.5q-157 0 -248.5 100 t-91.5 308zM274 399q0 -145 52.5 -209.5t150.5 -64.5q77 0 149.5 33.5t164.5 117.5l75 541q-44 42 -114 72.5t-142 30.5q-74 0 -133 -34t-96 -88t-62 -124.5t-35 -139t-10 -135.5zM479 1343q0 113 73 176.5t175 63.5q86 0 139.5 -44t53.5 -128q0 -109 -69 -172t-181 -63 q-89 0 -140 44t-51 123zM594 1358q0 -39 23 -60.5t67 -21.5q55 0 86 33.5t31 89.5q0 39 -23 59.5t-65 20.5q-52 0 -85.5 -31.5t-33.5 -89.5z" />
<glyph unicode="&#xe6;" horiz-adv-x="1746" d="M86 383q0 106 19.5 205t60.5 187.5t100.5 154.5t145.5 104.5t188 38.5q84 0 161 -32t132 -80l16 92h150l-8 -68q120 88 292 88q159 0 243.5 -76.5t84.5 -195.5q0 -74 -29 -133.5t-70 -98.5t-110.5 -68.5t-124.5 -44.5t-139 -25t-127.5 -13t-114.5 -6q0 -142 57 -215.5 t197 -73.5q105 0 174 53.5t95 142.5l153 -34q-44 -152 -165 -231t-285 -79q-245 0 -346 175q-192 -175 -408 -175q-158 0 -250 100t-92 308zM274 399q0 -145 52.5 -209.5t150.5 -64.5q78 0 149 33t160 116q-16 78 -16 160q0 223 100 383q-51 47 -119 75t-141 28 q-74 0 -133 -34t-96 -88t-62 -124.5t-35 -139t-10 -135.5zM965 553q198 6 346 49q182 54 182 191q0 68 -45.5 103.5t-126.5 35.5q-78 0 -142.5 -30.5t-107.5 -83.5t-69.5 -120t-36.5 -145z" />
<glyph unicode="&#xe7;" horiz-adv-x="1095" d="M82 420q0 154 42.5 278t118.5 206t181.5 125.5t230.5 43.5q184 0 281 -114.5t78 -296.5l-170 -13q6 135 -40 205t-169 70q-53 0 -101.5 -14.5t-96.5 -51t-83 -91t-56.5 -142t-21.5 -197.5q0 -159 67.5 -232t176.5 -73q220 0 287 223l162 -31q-41 -162 -155 -246t-273 -92 l-19 -67q59 -12 99.5 -52t40.5 -108q0 -103 -69 -161t-175 -58q-98 0 -160 41l37 102q61 -32 111 -32q53 0 83.5 28t30.5 70q0 47 -32 67.5t-105 22.5l41 152q-174 21 -258 136.5t-84 301.5z" />
<glyph unicode="&#xe8;" horiz-adv-x="1058" d="M84 434q0 130 38 245t108.5 203t178 139.5t238.5 51.5q164 0 251 -76.5t87 -195.5q0 -125 -73.5 -206t-200.5 -120q-165 -52 -441 -63q1 -48 6.5 -85.5t21.5 -77.5t43 -66t73.5 -43t109.5 -17q107 0 174.5 54t94.5 142l153 -34q-44 -152 -165.5 -231t-284.5 -79 q-111 0 -193 36t-128.5 100.5t-68.5 144.5t-22 178zM279 553q217 9 360 53q168 54 168 187q0 68 -45.5 103.5t-126.5 35.5q-152 0 -243 -107t-113 -272zM446 1530h222l151 -334l-135 -25z" />
<glyph unicode="&#xe9;" horiz-adv-x="1058" d="M84 434q0 130 38 245t108.5 203t178 139.5t238.5 51.5q164 0 251 -76.5t87 -195.5q0 -125 -73.5 -206t-200.5 -120q-165 -52 -441 -63q1 -48 6.5 -85.5t21.5 -77.5t43 -66t73.5 -43t109.5 -17q107 0 174.5 54t94.5 142l153 -34q-44 -152 -165.5 -231t-284.5 -79 q-111 0 -193 36t-128.5 100.5t-68.5 144.5t-22 178zM279 553q217 9 360 53q168 54 168 187q0 68 -45.5 103.5t-126.5 35.5q-152 0 -243 -107t-113 -272zM524 1196l238 334h231l-338 -359z" />
<glyph unicode="&#xea;" horiz-adv-x="1058" d="M84 434q0 130 38 245t108.5 203t178 139.5t238.5 51.5q164 0 251 -76.5t87 -195.5q0 -125 -73.5 -206t-200.5 -120q-165 -52 -441 -63q1 -48 6.5 -85.5t21.5 -77.5t43 -66t73.5 -43t109.5 -17q107 0 174.5 54t94.5 142l153 -34q-44 -152 -165.5 -231t-284.5 -79 q-111 0 -193 36t-128.5 100.5t-68.5 144.5t-22 178zM279 553q217 9 360 53q168 54 168 187q0 68 -45.5 103.5t-126.5 35.5q-152 0 -243 -107t-113 -272zM348 1194l279 338h182l184 -338l-139 -12l-149 235l-211 -237z" />
<glyph unicode="&#xeb;" horiz-adv-x="1058" d="M84 434q0 130 38 245t108.5 203t178 139.5t238.5 51.5q164 0 251 -76.5t87 -195.5q0 -125 -73.5 -206t-200.5 -120q-165 -52 -441 -63q1 -48 6.5 -85.5t21.5 -77.5t43 -66t73.5 -43t109.5 -17q107 0 174.5 54t94.5 142l153 -34q-44 -152 -165.5 -231t-284.5 -79 q-111 0 -193 36t-128.5 100.5t-68.5 144.5t-22 178zM279 553q217 9 360 53q168 54 168 187q0 68 -45.5 103.5t-126.5 35.5q-152 0 -243 -107t-113 -272zM350 1370q0 63 42 101t108 38q51 0 80.5 -28.5t29.5 -75.5q0 -64 -40.5 -101.5t-104.5 -37.5q-54 0 -84.5 27.5 t-30.5 76.5zM778 1370q0 63 42 101t108 38q52 0 81 -28t29 -76q0 -63 -40 -101t-103 -38q-54 0 -85.5 27.5t-31.5 76.5z" />
<glyph unicode="&#xec;" horiz-adv-x="505" d="M76 0l147 1053h187l-148 -1053h-186zM106 1530h222l151 -334l-135 -25z" />
<glyph unicode="&#xed;" horiz-adv-x="505" d="M76 0l147 1053h187l-148 -1053h-186zM184 1196l238 334h231l-338 -359z" />
<glyph unicode="&#xee;" horiz-adv-x="505" d="M8 1194l279 338h182l184 -338l-139 -12l-149 235l-211 -237zM76 0l147 1053h187l-148 -1053h-186z" />
<glyph unicode="&#xef;" horiz-adv-x="505" d="M10 1370q0 63 42 101t108 38q51 0 80.5 -28.5t29.5 -75.5q0 -64 -40.5 -101.5t-104.5 -37.5q-54 0 -84.5 27.5t-30.5 76.5zM76 0l147 1053h187l-148 -1053h-186zM438 1370q0 63 42 101t108 38q52 0 81 -28t29 -76q0 -63 -40 -101t-103 -38q-54 0 -85.5 27.5t-31.5 76.5z " />
<glyph unicode="&#xf0;" horiz-adv-x="1187" d="M86 426q0 119 35 227t100 192t166 133.5t225 49.5q81 0 156.5 -25.5t130.5 -70.5q1 0 3 2t3 2q-42 207 -168 330l-202 -113l-66 109l158 90q-103 62 -262 100l112 119q178 -52 297 -137l215 122l66 -112l-176 -98q204 -212 204 -574q0 -98 -10 -186.5t-33.5 -181.5 t-66.5 -168t-103.5 -135t-151 -93t-202.5 -33q-221 0 -325.5 119t-104.5 332zM272 416q0 -129 59.5 -211t188.5 -82q381 0 385 645q-42 47 -118 80t-164 33q-113 0 -194 -64t-119 -167.5t-38 -233.5z" />
<glyph unicode="&#xf1;" horiz-adv-x="1191" d="M80 0l147 1053h176l-22 -146h2q76 67 179.5 116.5t217.5 49.5q156 0 227.5 -90.5t47.5 -269.5l-99 -713h-186l96 692q33 226 -141 226q-155 0 -352 -158l-107 -760h-186zM346 1217q11 122 69.5 183.5t141.5 61.5q55 0 105 -23.5t93.5 -47t80.5 -23.5q40 0 61.5 25 t30.5 82l112 -5q-12 -122 -66 -181.5t-140 -59.5q-55 0 -106.5 23.5t-96.5 47t-82 23.5t-59 -25.5t-29 -87.5z" />
<glyph unicode="&#xf2;" horiz-adv-x="1181" d="M82 403q0 77 8 134q33 246 180 391t392 145q110 0 191.5 -32.5t128.5 -92t69 -135t22 -168.5q0 -70 -8 -133q-31 -254 -174 -395.5t-385 -141.5q-215 0 -319.5 113t-104.5 315zM270 412q0 -295 252 -295q144 0 237.5 104t117.5 305q6 62 6 121q0 277 -244 277 q-147 0 -243 -101t-120 -297q-6 -56 -6 -114zM444 1530h222l151 -334l-135 -25z" />
<glyph unicode="&#xf3;" horiz-adv-x="1181" d="M82 403q0 77 8 134q33 246 180 391t392 145q110 0 191.5 -32.5t128.5 -92t69 -135t22 -168.5q0 -70 -8 -133q-31 -254 -174 -395.5t-385 -141.5q-215 0 -319.5 113t-104.5 315zM270 412q0 -295 252 -295q144 0 237.5 104t117.5 305q6 62 6 121q0 277 -244 277 q-147 0 -243 -101t-120 -297q-6 -56 -6 -114zM522 1196l238 334h231l-338 -359z" />
<glyph unicode="&#xf4;" horiz-adv-x="1181" d="M82 403q0 77 8 134q33 246 180 391t392 145q110 0 191.5 -32.5t128.5 -92t69 -135t22 -168.5q0 -70 -8 -133q-31 -254 -174 -395.5t-385 -141.5q-215 0 -319.5 113t-104.5 315zM270 412q0 -295 252 -295q144 0 237.5 104t117.5 305q6 62 6 121q0 277 -244 277 q-147 0 -243 -101t-120 -297q-6 -56 -6 -114zM346 1194l279 338h182l184 -338l-139 -12l-150 235l-210 -237z" />
<glyph unicode="&#xf5;" horiz-adv-x="1181" d="M82 403q0 77 8 134q33 246 180 391t392 145q110 0 191.5 -32.5t128.5 -92t69 -135t22 -168.5q0 -70 -8 -133q-31 -254 -174 -395.5t-385 -141.5q-215 0 -319.5 113t-104.5 315zM270 412q0 -295 252 -295q144 0 237.5 104t117.5 305q6 62 6 121q0 277 -244 277 q-147 0 -243 -101t-120 -297q-6 -56 -6 -114zM336 1217q11 122 69.5 183.5t141.5 61.5q43 0 84.5 -14.5t68.5 -32.5t61 -32.5t64 -14.5q40 0 62 25t31 82l112 -5q-12 -122 -66 -181.5t-141 -59.5q-55 0 -106.5 23.5t-96 47t-81.5 23.5t-59 -25.5t-29 -87.5z" />
<glyph unicode="&#xf6;" horiz-adv-x="1181" d="M82 403q0 77 8 134q33 246 180 391t392 145q110 0 191.5 -32.5t128.5 -92t69 -135t22 -168.5q0 -70 -8 -133q-31 -254 -174 -395.5t-385 -141.5q-215 0 -319.5 113t-104.5 315zM270 412q0 -295 252 -295q144 0 237.5 104t117.5 305q6 62 6 121q0 277 -244 277 q-147 0 -243 -101t-120 -297q-6 -56 -6 -114zM348 1370q0 63 42 101t108 38q51 0 80.5 -28.5t29.5 -75.5q0 -64 -40.5 -101.5t-104.5 -37.5q-54 0 -84.5 27.5t-30.5 76.5zM776 1370q0 63 42 101t108 38q52 0 81 -28t29 -76q0 -63 -40 -101t-103 -38q-54 0 -85.5 27.5 t-31.5 76.5z" />
<glyph unicode="&#xf7;" horiz-adv-x="1165" d="M180 575l23 164h772l-23 -164h-772zM391 319q0 69 39.5 108.5t110.5 39.5q55 0 84.5 -27.5t29.5 -77.5q0 -71 -38.5 -109t-110.5 -38q-115 0 -115 104zM479 954q0 70 40 109t112 39q114 0 114 -105q0 -70 -39.5 -108.5t-111.5 -38.5q-115 0 -115 104z" />
<glyph unicode="&#xf8;" horiz-adv-x="1181" d="M82 403q0 77 8 134q33 246 180 391t392 145q21 0 67 -4l55 131h160l-72 -170q201 -96 201 -385q0 -70 -8 -133q-31 -254 -174 -395.5t-385 -141.5q-14 0 -76 5l-57 -140h-160l74 176q-205 96 -205 387zM270 412q0 -167 82 -240l316 750q-10 2 -29 2q-147 0 -243 -101 t-120 -297q-6 -56 -6 -114zM489 119q10 -2 33 -2q144 0 237.5 104t117.5 305q6 62 6 121q0 154 -78 223z" />
<glyph unicode="&#xf9;" horiz-adv-x="1187" d="M121 342l98 711h187l-97 -693q-10 -76 -2 -114q6 -60 42.5 -87.5t105.5 -27.5q87 0 177.5 43t162.5 107l106 772h186l-147 -1053h-168l19 139q-71 -64 -178 -111.5t-218 -47.5q-159 0 -229 91t-45 271zM440 1530h222l151 -334l-135 -25z" />
<glyph unicode="&#xfa;" horiz-adv-x="1187" d="M121 342l98 711h187l-97 -693q-10 -76 -2 -114q6 -60 42.5 -87.5t105.5 -27.5q87 0 177.5 43t162.5 107l106 772h186l-147 -1053h-168l19 139q-71 -64 -178 -111.5t-218 -47.5q-159 0 -229 91t-45 271zM551 1196l237 334h232l-338 -359z" />
<glyph unicode="&#xfb;" horiz-adv-x="1187" d="M121 342l98 711h187l-97 -693q-10 -76 -2 -114q6 -60 42.5 -87.5t105.5 -27.5q87 0 177.5 43t162.5 107l106 772h186l-147 -1053h-168l19 139q-71 -64 -178 -111.5t-218 -47.5q-159 0 -229 91t-45 271zM342 1194l279 338h182l184 -338l-139 -12l-150 235l-211 -237z" />
<glyph unicode="&#xfc;" horiz-adv-x="1187" d="M121 342l98 711h187l-97 -693q-10 -76 -2 -114q6 -60 42.5 -87.5t105.5 -27.5q87 0 177.5 43t162.5 107l106 772h186l-147 -1053h-168l19 139q-71 -64 -178 -111.5t-218 -47.5q-159 0 -229 91t-45 271zM344 1370q0 63 42 101t108 38q51 0 80.5 -28.5t29.5 -75.5 q0 -64 -40.5 -101.5t-104.5 -37.5q-54 0 -84.5 27.5t-30.5 76.5zM772 1370q0 63 42 101t108 38q52 0 81 -28t29 -76q0 -63 -40 -101t-103 -38q-54 0 -85.5 27.5t-31.5 76.5z" />
<glyph unicode="&#xfd;" horiz-adv-x="980" d="M-135 -420l33 135q73 -30 145 -30q73 0 126.5 64.5t133.5 242.5l-221 1061h194l152 -848l393 848h195l-555 -1119q-60 -120 -100.5 -186.5t-88.5 -117t-100 -69t-125 -18.5q-102 0 -182 37zM418 1196l237 334h232l-338 -359z" />
<glyph unicode="&#xfe;" horiz-adv-x="1198" d="M18 -436l279 1982h182l-90 -631q94 73 185 114.5t196 41.5q150 0 236 -95.5t86 -303.5q0 -177 -43 -314.5t-116.5 -219.5t-164 -123.5t-193.5 -41.5q-173 0 -303 113l-73 -522h-181zM299 238q119 -107 262 -107q73 0 131 29.5t95.5 79t63 118t36 143t10.5 158.5 q0 137 -44.5 199t-139.5 62q-81 0 -178 -49.5t-162 -106.5z" />
<glyph unicode="&#xff;" horiz-adv-x="980" d="M-135 -420l33 135q73 -30 145 -30q73 0 126.5 64.5t133.5 242.5l-221 1061h194l152 -848l393 848h195l-555 -1119q-60 -120 -100.5 -186.5t-88.5 -117t-100 -69t-125 -18.5q-102 0 -182 37zM244 1370q0 63 41.5 101t107.5 38q51 0 81 -28.5t30 -75.5q0 -63 -41 -101 t-105 -38q-54 0 -84 27.5t-30 76.5zM672 1370q0 63 41.5 101t107.5 38q52 0 81.5 -28t29.5 -76q0 -63 -40.5 -101t-103.5 -38q-54 0 -85 27.5t-31 76.5z" />
<glyph unicode="&#x152;" horiz-adv-x="2205" d="M96 606q0 155 34 292.5t101 249t161.5 192.5t221.5 125t275 44q167 0 282 -74.5t172 -201.5l35 250h832l-21 -154h-663l-70 -506h621l-23 -153h-618l-74 -516h688l-22 -154h-854l30 227q-197 -252 -536 -252q-144 0 -254.5 47.5t-179.5 133t-103.5 199t-34.5 251.5z M293 614q0 -232 105 -357.5t292 -125.5q121 0 226 47.5t186 138t127.5 235.5t46.5 327q0 224 -109 349.5t-295 125.5q-123 0 -228 -49t-183.5 -140.5t-123 -233.5t-44.5 -317z" />
<glyph unicode="&#x153;" horiz-adv-x="1835" d="M82 416q0 101 21 194.5t67 178t112 147.5t162.5 100t212.5 37q141 0 228.5 -62.5t122.5 -162.5q60 97 169.5 161t247.5 64q162 0 248 -76.5t86 -195.5q0 -70 -25.5 -127.5t-65 -96t-101.5 -68t-120 -46.5t-136 -28t-134.5 -15.5t-129.5 -7.5q0 -63 9.5 -109.5t34.5 -90 t77.5 -66.5t131.5 -23q105 0 173 54t96 142l153 -34q-46 -152 -165 -231t-279 -79q-139 0 -229 62t-123 162q-65 -104 -172.5 -164t-253.5 -60q-212 0 -315 115.5t-103 325.5zM270 422q0 -305 252 -305q79 0 141.5 29.5t103 79t67.5 117.5t38 140.5t11 153.5q0 287 -244 287 q-78 0 -141 -29.5t-105 -79t-70 -115t-40.5 -135.5t-12.5 -143zM1053 551q207 6 360 53q170 55 170 189q0 68 -46.5 103.5t-127.5 35.5q-78 0 -142.5 -30.5t-107.5 -84t-69.5 -121t-36.5 -145.5z" />
<glyph unicode="&#x178;" horiz-adv-x="1110" d="M98 1483h193l284 -733h3l469 733h194l-592 -903q-8 -55 -35.5 -261t-44.5 -319h-184l80 575zM354 1702q0 64 41.5 102.5t108.5 38.5q51 0 80.5 -28.5t29.5 -77.5q0 -64 -40.5 -102t-104.5 -38q-54 0 -84.5 28t-30.5 77zM782 1702q0 64 41.5 102.5t108.5 38.5q52 0 81 -28 t29 -78q0 -63 -40 -101.5t-103 -38.5q-54 0 -85.5 28t-31.5 77z" />
<glyph unicode="&#x2c6;" horiz-adv-x="1024" d="M375 1194l278 338h183l184 -338l-139 -12l-150 235l-211 -237z" />
<glyph unicode="&#x2dc;" horiz-adv-x="1021" d="M365 1217q11 122 69 183.5t141 61.5q55 0 105 -23.5t93.5 -47t80.5 -23.5q40 0 61.5 25t30.5 82l113 -5q-12 -122 -66 -181.5t-141 -59.5q-55 0 -106.5 23.5t-96.5 47t-82 23.5t-59 -25.5t-29 -87.5z" />
<glyph unicode="&#x2000;" horiz-adv-x="935" />
<glyph unicode="&#x2001;" horiz-adv-x="1870" />
<glyph unicode="&#x2002;" horiz-adv-x="935" />
<glyph unicode="&#x2003;" horiz-adv-x="1870" />
<glyph unicode="&#x2004;" horiz-adv-x="623" />
<glyph unicode="&#x2005;" horiz-adv-x="467" />
<glyph unicode="&#x2006;" horiz-adv-x="311" />
<glyph unicode="&#x2007;" horiz-adv-x="311" />
<glyph unicode="&#x2008;" horiz-adv-x="233" />
<glyph unicode="&#x2009;" horiz-adv-x="374" />
<glyph unicode="&#x200a;" horiz-adv-x="103" />
<glyph unicode="&#x2010;" horiz-adv-x="647" d="M18 518l25 170h555l-25 -170h-555z" />
<glyph unicode="&#x2011;" horiz-adv-x="647" d="M18 518l25 170h555l-25 -170h-555z" />
<glyph unicode="&#x2012;" horiz-adv-x="647" d="M18 518l25 170h555l-25 -170h-555z" />
<glyph unicode="&#x2013;" horiz-adv-x="1024" d="M-14 506l20 141h1022l-20 -141h-1022z" />
<glyph unicode="&#x2014;" horiz-adv-x="2048" d="M-14 506l20 141h2046l-20 -141h-2046z" />
<glyph unicode="&#x2018;" horiz-adv-x="415" d="M137 1135l234 460l139 -18l-172 -442h-201z" />
<glyph unicode="&#x2019;" horiz-adv-x="415" d="M139 1126l172 443h201l-233 -461z" />
<glyph unicode="&#x201a;" horiz-adv-x="415" d="M-72 -264l172 442h201l-233 -461z" />
<glyph unicode="&#x201c;" horiz-adv-x="731" d="M137 1135l234 460l139 -18l-172 -442h-201zM455 1135l233 460l139 -18l-172 -442h-200z" />
<glyph unicode="&#x201d;" horiz-adv-x="731" d="M139 1126l172 443h201l-233 -461zM457 1126l172 443h200l-233 -461z" />
<glyph unicode="&#x201e;" horiz-adv-x="731" d="M-72 -264l172 442h201l-233 -461zM244 -264l172 442h200l-233 -461z" />
<glyph unicode="&#x2022;" horiz-adv-x="802" d="M111 524q0 157 84 240.5t237 83.5q122 0 185 -57.5t63 -167.5q0 -158 -84 -241t-240 -83q-120 0 -182.5 56.5t-62.5 168.5z" />
<glyph unicode="&#x2026;" horiz-adv-x="1312" d="M25 86q0 77 41.5 117.5t119.5 40.5q121 0 121 -111q0 -77 -41 -117.5t-119 -40.5q-122 0 -122 111zM444 86q0 76 42 117t120 41q121 0 121 -111q0 -77 -41 -117.5t-119 -40.5q-123 0 -123 111zM866 86q0 76 42 117t120 41q121 0 121 -111q0 -77 -41 -117.5t-119 -40.5 q-123 0 -123 111z" />
<glyph unicode="&#x202f;" horiz-adv-x="374" />
<glyph unicode="&#x2039;" horiz-adv-x="569" d="M106 530l226 306h168l-215 -299l123 -326h-168z" />
<glyph unicode="&#x203a;" horiz-adv-x="567" d="M41 211l223 313l-131 312h166l135 -316l-223 -309h-170z" />
<glyph unicode="&#x205f;" horiz-adv-x="467" />
<glyph unicode="&#x20ac;" horiz-adv-x="1323" d="M23 512l36 139h144q7 90 20 164h-129l39 137h123q36 120 93 218.5t137.5 176t191 121t240.5 43.5q62 0 116 -11.5t106 -42.5t87 -79.5t53.5 -128t11.5 -182.5l-166 -14q3 172 -49.5 239.5t-195.5 67.5q-135 0 -253 -109.5t-182 -298.5h439l-41 -137h-434 q-18 -97 -23 -164h422l-37 -139h-387q8 -193 82.5 -289t228.5 -96q251 0 342 276l154 -34q-53 -201 -191 -297.5t-321 -96.5q-124 0 -214.5 37.5t-146.5 109.5t-84.5 168t-33.5 222h-178z" />
<glyph unicode="&#x2122;" horiz-adv-x="1703" d="M129 1374v109h651v-109h-264v-661h-123v661h-264zM891 713v770h145l236 -609l241 609h134v-770h-113v551l-219 -551h-94l-215 553v-553h-115z" />
<glyph unicode="&#x25fc;" horiz-adv-x="1054" d="M0 0v1055h1055v-1055h-1055z" />
</font>
</defs>
</svg>
