<svg xmlns="http://www.w3.org/2000/svg" xmlns:xlink="http://www.w3.org/1999/xlink" version="1.1" id="Layer_1" x="0" y="0" viewBox="0 0 512 512" xml:space="preserve" enable-background="new 0 0 512 512">
  <path d="M256 166.4c-17.64 0-32 14.36-32 32 0 17.65 14.36 32 32 32 17.65 0 32-14.35 32-32C288 180.76 273.65 166.4 256 166.4z" fill="#202020"/>
  <path d="M256 230.4c-31.76 0-57.6 25.84-57.6 57.6 0 17.65 14.36 32 32 32h51.2c17.65 0 32-14.35 32-32C313.6 256.24 287.76 230.4 256 230.4z" fill="#202020"/>
  <path d="M384 0H128c-14.14 0-25.6 11.46-25.6 25.6v460.8c0 14.14 11.46 25.6 25.6 25.6h256c14.14 0 25.6-11.46 25.6-25.6V25.6C409.6 11.46 398.14 0 384 0zM274.1 478.9c-4.84 4.84-11.26 7.5-18.1 7.5h-0.01c-14.11 0-25.59-11.49-25.59-25.6 0-14.12 11.48-25.6 25.6-25.6s25.6 11.48 25.6 25.6C281.6 467.63 278.94 474.07 274.1 478.9zM371.2 409.6H140.8V76.8h230.4V409.6z" fill="#202020"/>
</svg>
