<svg xmlns="http://www.w3.org/2000/svg" xmlns:xlink="http://www.w3.org/1999/xlink" version="1.1" id="Capa_1" x="0" y="0" viewBox="0 0 340 340" xml:space="preserve" enable-background="new 0 0 340 340">
  <path d="M149.26 200.74c-0.44-1.17-1.56-1.94-2.81-1.94 0 0 0 0-0.01 0l-5.06 0.01c-1.25 0-2.37 0.78-2.81 1.96l-17.59 47.26c-0.34 0.92-0.21 1.95 0.35 2.76 0.56 0.81 1.48 1.29 2.47 1.29h4.58c1.25 0 2.38-0.78 2.82-1.96l5.2-13.98h15.21l5.27 13.99c0.44 1.17 1.56 1.94 2.81 1.94h4.59c0.01 0 0.01 0 0.02 0 1.66 0 3-1.34 3-3 0-0.48-0.11-0.94-0.32-1.35L149.26 200.74zM140.22 225.85l3.72-10 3.77 10H140.22z" fill="#202020"/>
  <path d="M193.67 198.59h-19.02c-1.66 0-3 1.34-3 3v47.19c0 1.66 1.34 3 3 3h19.02c14.96 0 27.12-11.92 27.12-26.57C220.79 210.54 208.62 198.59 193.67 198.59zM193.67 241.49h-11.73v-32.6h11.73c9.28 0 16.83 7.33 16.83 16.33C210.49 234.19 202.95 241.49 193.67 241.49z" fill="#202020"/>
  <path d="M338.94 70.83c0-2.67-1.04-5.17-2.93-7.06L275.16 2.93C273.27 1.04 270.76 0 268.09 0H10.83C8.15 0 5.64 1.04 3.75 2.94c-1.89 1.89-2.93 4.41-2.92 7.08l0.52 292.2C1.35 323.05 18.3 340 39.13 340h262.26c20.84 0 37.78-16.95 37.78-37.79L338.94 70.83zM199.03 76.9c-5.9-1.78-15.76-4.77-15.76-16.14 0-8.57 7.23-14.33 17.98-14.33 4.65 0 9.73 1.42 13.26 3.7 1.35 0.87 2.27 2.22 2.61 3.78 0.34 1.57 0.04 3.17-0.83 4.52 -1.11 1.71-2.99 2.74-5.04 2.74 -1.16 0-2.28-0.33-3.26-0.97 -1.59-1.03-4.42-1.77-6.73-1.77 -2.31 0-5.98 0.63-5.98 2.33 0 1.86 0.56 2.63 7.24 4.65 5.73 1.73 15.31 4.64 15.23 15.48 0 6.97-5.46 14.01-17.67 14.01 -6.17 0-12.47-2.61-16.45-6.81 -1.1-1.16-1.69-2.69-1.64-4.29 0.04-1.6 0.71-3.09 1.87-4.19 1.12-1.06 2.59-1.64 4.13-1.64 1.64 0 3.23 0.68 4.36 1.87 1.74 1.83 4.85 3.07 7.74 3.07 2.79 0 5.67-0.77 5.67-2.06C205.74 79.61 205.75 78.94 199.03 76.9zM122.24 49.29c0.71-1.43 1.94-2.51 3.46-3.02 0.62-0.21 1.26-0.31 1.91-0.31 2.58 0 4.87 1.65 5.69 4.09l7 20.86 5.87-19.17c0.78-2.54 3.08-4.24 5.74-4.24 2.66 0 4.97 1.71 5.74 4.25l5.77 18.93 6.77-20.59c0.81-2.47 3.1-4.13 5.7-4.13 0.64 0 1.26 0.1 1.87 0.3 1.52 0.5 2.76 1.56 3.48 3 0.72 1.43 0.85 3.06 0.35 4.58l-12.69 38.59c-0.81 2.47-3.1 4.13-5.7 4.13l-0.08 0c-2.61-0.03-4.89-1.74-5.66-4.25l-5.56-18.26 -5.59 18.27c-0.77 2.5-3.04 4.21-5.66 4.24h0c-2.66 0-4.94-1.64-5.77-4.09l-12.95-38.59C121.41 52.35 121.52 50.73 122.24 49.29zM83.43 52.81c0-3.31 2.69-6 6-6h23.48c3.31 0 6 2.69 6 6 0 3.31-2.69 6-6 6H95.43v5.64h18.54c3.31 0 6 2.69 6 6s-2.69 6-6 6H95.43v7.92h18.22c3.31 0 6 2.69 6 6s-2.69 6-6 6h-24.22c-3.31 0-6-2.69-6-6V52.81zM38.14 89.99V53.5c0-2.61 1.67-4.9 4.15-5.71 2.43-0.79 5.21 0.12 6.71 2.18l15.63 21.53V52.44c0-3.31 2.69-6 6-6 3.31 0 6 2.69 6 6v37.55c0 2.61-1.67 4.9-4.15 5.71 -0.6 0.2-1.22 0.29-1.85 0.29 -1.91 0-3.73-0.92-4.86-2.48L50.14 71.98v18.01c0 3.31-2.69 6-6 6C40.84 95.99 38.14 93.3 38.14 89.99zM286.81 267.1c0 2.76-2.24 5-5 5H57.96c-2.76 0-5-2.24-5-5v-83.35c0-2.76 2.24-5 5-5h223.85c2.76 0 5 2.24 5 5V267.1zM282.23 151H57.77c-5.39 0-9.77-4.37-9.77-9.77 0-5.39 4.37-9.77 9.77-9.77h224.47c5.4 0 9.77 4.37 9.77 9.77C292 146.63 287.63 151 282.23 151zM305.32 81.15c-0.75 0.75-1.76 1.17-2.81 1.17h-44.04c-2.2 0-3.98-1.78-3.98-3.98V34.93c0-2.2 1.78-3.98 3.98-3.98h3.55c1.06 0 2.07 0.42 2.81 1.16l40.49 40.49c0.75 0.75 1.17 1.76 1.17 2.81l0 2.91C306.48 79.39 306.06 80.4 305.32 81.15z" fill="#202020"/>
</svg>
